<?xml version="1.0" encoding="UTF-8"?>
<!DOCTYPE svg PUBLIC "-//W3C//DTD SVG 1.1//EN" "http://www.w3.org/Graphics/SVG/1.1/DTD/svg11.dtd">
<!-- Creator: CorelDRAW 2021 (64 Bit) -->
<svg xmlns="http://www.w3.org/2000/svg" xml:space="preserve" width="2362px" height="1000px" version="1.1" style="shape-rendering:geometricPrecision; text-rendering:geometricPrecision; image-rendering:optimizeQuality; fill-rule:evenodd; clip-rule:evenodd"
viewBox="0 0 2362 999.91"
 xmlns:xlink="http://www.w3.org/1999/xlink"
 xmlns:xodm="http://www.corel.com/coreldraw/odm/2003">
 <defs>
  <style type="text/css">
   <![CDATA[
    .fil0 {fill:#2DAFE5}
   ]]>
  </style>
 </defs>
 <g id="Camada_x0020_1">
  <metadata id="CorelCorpID_0Corel-Layer"/>
  <path class="fil0" d="M1116.29 672.04c-0.67,3.96 -2.48,6.99 -5.41,9.08 -2.93,2.1 -6.85,3.15 -11.74,3.15 -3.71,0 -6.96,-0.71 -9.74,-2.15 -2.78,-1.44 -4.96,-3.52 -6.52,-6.26 -1.56,-2.74 -2.34,-5.97 -2.34,-9.71 0,-3.52 0.74,-6.64 2.22,-9.38 1.48,-2.74 3.61,-4.88 6.42,-6.43 2.81,-1.54 6.07,-2.31 9.81,-2.31 4.57,0 8.24,0.94 11.02,2.82 2.77,1.88 4.69,4.73 5.74,8.53l-4.68 0.73c-1,-2.78 -2.44,-4.78 -4.32,-6 -1.89,-1.22 -4.47,-1.84 -7.76,-1.84 -2.67,0 -5.03,0.55 -7.06,1.65 -2.02,1.09 -3.6,2.68 -4.72,4.78 -1.14,2.1 -1.7,4.59 -1.7,7.45 0,2.8 0.53,5.23 1.6,7.32 1.06,2.08 2.62,3.69 4.69,4.83 2.05,1.14 4.5,1.71 7.34,1.71 3.55,0 6.3,-0.64 8.29,-1.93 1.98,-1.29 3.28,-3.3 3.93,-6.04l4.93 0zm-77.82 -348.34l-27.32 33.71 -24.22 0c-0.75,-0.11 -1.54,-0.18 -2.41,-0.18l-138.91 0 0 -39.49c0,-6.74 5.48,-12.21 12.21,-12.21l169.99 0c4.47,0 8.45,2.33 10.64,6.23 2.12,3.77 2.12,8.2 0.02,11.94zm-245.82 283.78c-66.9,0 -121.31,-54.42 -121.31,-121.31 0,-66.89 54.41,-121.3 121.31,-121.3l45.32 0 0 23.65c-0.56,51.95 -1.48,153.31 -0.31,179.9 1.22,27.79 -20.47,36.39 -28.69,38.65 -1.25,0.2 -2.38,0.35 -3.15,0.41l-13.17 0zm235.16 -309.59l-169.99 0c-10.96,0 -19.85,8.89 -19.85,19.85l0 39.49 -45.32 0c-71.22,0 -128.94,57.73 -128.94,128.94l0 0c0,71.21 57.72,128.95 128.94,128.95l13.46 0c5.5,-0.4 11.76,-1.87 17.71,-4.75 37.6,-9.75 92.99,-104.49 194.6,-249.8l26.34 -32.51c8.05,-13.22 -1.47,-30.17 -16.95,-30.17zm481.74 290.85l0 2.01c-3.49,2.19 -7.08,2.96 -8.35,2.96 -6.68,0 -8.18,-0.38 -8.33,-1.46 1.04,-1.17 6.62,-3.11 16.68,-3.51zm-20.52 3.31c0,5.48 5.66,5.48 12.17,5.48 2.41,0 7.72,-1.36 12.17,-4.79l0 -7.89c-10.28,0 -24.34,1.72 -24.34,7.2zm1.34 -25.94c1.21,-0.53 2.32,-1.27 3.25,-2.2 1.91,-1.8 5.86,-1.8 7.75,-1.8 4.38,0 6.5,0.92 7.46,2.67 -5.17,0.05 -11.77,0.3 -18.46,1.33zm49.39 41.53c0,3.77 -2.23,8.05 -6.35,8.05l-11.65 0c-4.11,0 -8.39,-4.28 -8.39,-8.05 -8.74,8.06 -19.88,8.06 -25.71,8.06 -10.62,0 -25.01,-5.83 -25.01,-22.79 0,-22.28 29.64,-24.34 50.72,-24.34 0,-8.05 -5.14,-10.28 -12,-10.28 -3.08,0 -7.53,0.17 -10.45,2.92 -1.37,1.36 -3.26,2.05 -5.31,2.05l-9.6 0c-4.11,0 -7.03,-3.6 -7.03,-7.37 5.83,-11.48 16.97,-15.76 31.54,-15.76 31.01,0 39.24,11.99 39.24,38.38l0 29.13zm-39.24 -71.33c-17.41,0 -28.84,5.84 -34.94,17.85l-0.41 0.82 0 0.91c0,6.17 4.86,11.19 10.84,11.19l9.13 0c-13.68,3.01 -26.31,9.93 -26.31,25.83 0,18.28 14.95,26.61 28.83,26.61 5.14,0 15.04,0 23.96,-5.73 2.3,3.31 6.2,5.72 10.14,5.72l11.65 0c6.36,0 10.17,-6.04 10.17,-11.87l0 -29.13c0,-25.33 -7.33,-42.2 -43.06,-42.2zm-50.97 74.06c0,2.94 -2.41,5.18 -5.01,5.18 -2.24,0.18 -4.15,0.18 -5.7,0.18 -17.98,0 -25.76,-12.27 -25.76,-32.84l0 -63.09c0,-3.8 3.29,-7.08 7.44,-7.08l11.75 0c4.14,0 7.43,3.28 7.43,7.08l0 69.31c0,3.46 1.55,6.05 5.01,7.43 2.94,0.87 4.84,2.42 4.84,5.36l0 8.47zm-3.56 -17.43c-1.78,-0.75 -2.47,-1.84 -2.47,-3.83l0 -69.31c0,-6.01 -5.04,-10.91 -11.25,-10.91l-11.75 0c-6.21,0 -11.26,4.9 -11.26,10.91l0 63.09c0,30.3 16.08,36.65 29.58,36.65 1.57,0 3.53,0 5.87,-0.17 4.71,-0.09 8.66,-4.17 8.66,-9l0 -8.47c0,-2.51 -0.97,-6.99 -7.38,-8.96zm-97.26 -27.15c2.24,-2.92 5.21,-3.57 9.42,-3.57 3.96,0 7.17,0.33 9.49,3.57l-18.91 0zm9.42 -7.39c-6.38,0 -12.24,1.38 -15.52,11.21l30.87 0c-2.94,-10.17 -9.14,-11.21 -15.35,-11.21zm11.83 31.06c-1.59,0.8 -3.18,1.99 -4.84,3.62 -1.46,0.99 -4.91,0.99 -6.99,0.99 -5.77,0 -8.96,-1.28 -10.57,-4.61l22.4 0zm21.45 -3.82l-48.8 0c1.21,9.31 6.73,12.25 15.52,12.25 2.93,0 7.07,0 9.48,-1.9 3.1,-3.11 5.35,-3.97 7.59,-3.97l10 0c4.48,0 7.59,3.79 7.59,7.94 -5.34,8.96 -17.24,16.2 -34.49,16.2 -32.41,0 -42.24,-20.86 -42.24,-37.93 0,-17.59 9.31,-38.11 41.72,-38.11 32.08,0 41.04,20.01 41.04,38.11 0,4.14 -3.28,7.41 -7.41,7.41zm-33.63 -49.34c-42.25,0 -45.53,32.1 -45.53,41.93 0,20.19 12.09,41.75 46.05,41.75 16.9,0 31.02,-6.76 37.76,-18.07l0.55 -0.91 0 -1.04c0,-4.58 -2.56,-8.56 -6.28,-10.5l1.08 0c6.29,0 11.23,-4.93 11.23,-11.23 0,-26.25 -16.77,-41.93 -44.86,-41.93zm-54.77 74.18c0,2.91 -2.4,5.12 -4.96,5.12 -2.22,0.18 -4.1,0.18 -5.64,0.18 -17.77,0 -25.47,-12.14 -25.47,-32.47l0 -62.38c0,-3.77 3.25,-7.01 7.35,-7.01l11.63 0c4.1,0 7.34,3.24 7.34,7.01l0 68.53c0,3.42 1.54,5.98 4.96,7.35 2.91,0.85 4.79,2.39 4.79,5.29l0 8.38zm-3.51 -17.27c-1.74,-0.74 -2.42,-1.8 -2.42,-3.75l0 -68.53c0,-5.97 -5.01,-10.83 -11.16,-10.83l-11.63 0c-6.15,0 -11.16,4.86 -11.16,10.83l0 62.38c0,29.99 15.92,36.29 29.28,36.29 1.56,0 3.5,0 5.81,-0.17 4.68,-0.1 8.61,-4.16 8.61,-8.95l0 -8.38c0,-2.49 -0.96,-6.94 -7.33,-8.89zm-46.83 17.27c0,2.91 -2.39,5.12 -4.95,5.12 -2.23,0.18 -4.11,0.18 -5.64,0.18 -17.78,0 -25.47,-12.14 -25.47,-32.47l0 -62.38c0,-3.77 3.25,-7.01 7.35,-7.01l11.62 0c4.1,0 7.35,3.24 7.35,7.01l0 68.53c0,3.42 1.54,5.98 4.96,7.35 2.9,0.85 4.78,2.39 4.78,5.29l0 8.38zm-3.51 -17.27c-1.74,-0.74 -2.41,-1.8 -2.41,-3.75l0 -68.53c0,-5.97 -5.01,-10.83 -11.17,-10.83l-11.62 0c-6.16,0 -11.17,4.86 -11.17,10.83l0 62.38c0,29.99 15.93,36.29 29.29,36.29 1.55,0 3.49,0 5.8,-0.17 4.68,-0.1 8.61,-4.16 8.61,-8.95l0 -8.38c0,-2.49 -0.96,-6.94 -7.33,-8.89zm-52.28 -66.67c0,3.84 -3.31,7.16 -7.51,7.16l-11.87 0c-4.19,0 -7.51,-3.32 -7.51,-7.16l0 -6.64c0,-3.84 3.32,-7.15 7.51,-7.15l11.87 0c4.2,0 7.51,3.31 7.51,7.15l0 6.64zm0 21.12l0 61.26c0,3.85 -3.31,7.16 -7.51,7.16l-11.87 0c-4.19,0 -7.51,-3.31 -7.51,-7.16l0 -61.26c0,-3.84 3.32,-7.16 7.51,-7.16l11.87 0c4.2,0 7.51,3.32 7.51,7.16zm-7.51 -38.74l-11.87 0c-6.24,0 -11.33,4.93 -11.33,10.98l0 6.64c0,5.01 3.49,9.25 8.24,10.56 -4.75,1.31 -8.24,5.55 -8.24,10.56l0 61.26c0,6.06 5.09,10.98 11.33,10.98l11.87 0c6.25,0 11.33,-4.92 11.33,-10.98l0 -61.26c0,-5.01 -3.49,-9.25 -8.24,-10.56 4.75,-1.31 8.24,-5.55 8.24,-10.56l0 -6.64c0,-6.05 -5.08,-10.98 -11.33,-10.98zm-62.76 99.55c-1.24,3.7 -4.23,7.21 -8.45,7.21l-28.87 0c-4.22,0 -7.22,-3.51 -8.45,-7.21l-31.15 -88.53c0,-3.88 3.34,-7.23 7.57,-7.23l12.84 0c4.23,0 7.57,3.53 8.81,7.23l24.81 74.8 24.82 -74.8c1.23,-3.7 4.58,-7.23 8.8,-7.23l12.85 0c4.22,0 7.57,3.35 7.57,7.23l-31.15 88.53zm23.58 -99.58l-12.85 0c-6.29,0 -10.84,5.1 -12.42,9.83l-21.2 63.89 -21.19 -63.88c-1.58,-4.74 -6.14,-9.84 -12.43,-9.84l-12.84 0c-6.28,0 -11.39,4.96 -11.39,11.05l0 0.64 0.22 0.62 31.15 88.53c1.97,5.91 6.71,9.77 12.05,9.77l28.87 0c5.34,0 10.08,-3.86 12.07,-9.83l31.14 -88.47 0.21 -0.62 0 -0.64c0,-6.09 -5.11,-11.05 -11.39,-11.05zm509.81 -79.29c-14.21,-3.02 -30.35,-4.09 -30.35,-10.12 0,-1.94 0,-6.03 10.12,-6.03 5.59,0 8.39,1.3 10.11,3.23 2.58,4.52 5.38,4.95 8.18,4.95l13.56 0c5.59,0 9.69,-4.73 9.69,-9.9 -6.89,-15.06 -21.95,-21.09 -41.54,-21.09 -31.42,0 -43.27,14.64 -43.27,32.71 0,19.81 19.81,24.11 40.47,27.77 10.33,1.94 17.01,3.23 17.01,5.81 0,2.59 -0.87,5.82 -12.92,5.82 -5.38,0 -9.04,-1.52 -11.19,-3.45 -3.23,-4.3 -5.81,-4.74 -8.62,-4.74l-13.13 0c-5.59,0 -9.68,4.74 -9.68,9.9 7.32,15.5 24.11,21.1 43.69,21.1 31.64,0 44.99,-13.56 44.99,-31.64 0,-14.85 -11.84,-21.09 -27.12,-24.32zm-146.41 -2.15c4.09,-12.27 11.4,-13.99 19.36,-13.99 7.75,0 15.5,1.29 19.17,13.99l-38.53 0zm18.94 -36.81c-40.47,0 -52.09,25.61 -52.09,47.57 0,21.3 12.27,47.35 52.74,47.35 21.52,0 36.37,-9.04 43.04,-20.23 0,-5.17 -3.87,-9.91 -9.47,-9.91l-12.48 0c-2.8,0 -5.6,1.08 -9.48,4.96 -3.01,2.36 -8.17,2.36 -11.84,2.36 -10.97,0 -17.86,-3.65 -19.36,-15.28l60.91 0c5.16,0 9.25,-4.09 9.25,-9.25 0,-22.61 -11.19,-47.57 -51.22,-47.57zm-119.95 52.73c0,26.04 9.48,42.19 32.72,42.19 4.09,0 10.11,-0.43 15.28,-1.29 3.23,-0.65 6.03,-2.8 6.03,-6.46l0 -12.27c0,-3.66 -3.01,-6.46 -6.24,-6.46l-1.73 0c-9.25,0 -12.91,-4.52 -12.91,-12.05l0 -31.42 14.85 0c3.23,0 6.03,-2.8 6.03,-6.46l0 -9.9c0,-3.66 -2.8,-6.46 -6.03,-6.46l-14.85 0 0 -26.41c0,-4.74 -4.09,-8.83 -9.26,-8.83l-14.63 3.66c-4.95,1.29 -9.26,5.17 -9.26,9.9l0 21.68 -9.68 0c-3.23,0 -6.03,2.8 -6.03,6.46l0 9.9c0,3.66 2.8,6.46 6.03,6.46l9.68 0 0 27.76zm-82.95 40.9c5.16,0 9.25,-4.1 9.25,-8.83l0 -41.32c0,-10.98 12.06,-18.29 24.97,-18.29 1.93,0 5.16,0.42 7.97,0.85 3.23,0 6.02,-2.79 6.02,-6.46l0 -12.91c0,-5.16 -4.52,-6.67 -8.61,-6.67 -6.24,0 -22.39,2.37 -29.92,16.14l-0.43 -5.16c-0.43,-4.73 -4.09,-8.83 -9.25,-8.83l-14.64 0c-5.17,0 -9.26,4.1 -9.26,8.83l0 73.82c0,4.73 4.09,8.83 9.26,8.83l14.64 0zm-111.8 -99.83l7.79 0c3.23,0 5.58,-2.38 7.05,-5.01l4.26 -7.54 4.26 7.54c1.46,2.63 3.82,5.01 7.05,5.01l7.79 0c3.23,0 5.87,-2.38 5.87,-5.01l-11.6 -17.98c-1.76,-2.77 -3.52,-5.41 -7.05,-5.41l-12.64 0c-3.52,0 -5.29,2.64 -7.05,5.41l-11.6 17.98c0,2.63 2.64,5.01 5.87,5.01zm20.7 29.02c11.41,0 20.23,6.45 20.23,24.75 0,20.01 -9.47,24.53 -20.23,24.53 -10.76,0 -20.23,-4.52 -20.23,-24.53 0,-18.3 8.83,-24.75 20.23,-24.75zm0 72.1c15.94,0 27.61,-3.74 35.89,-9.7 12.75,-9.16 17.49,-23.57 17.49,-37.65 0,-22.6 -12.92,-47.57 -53.38,-47.57 -40.47,0 -53.38,24.97 -53.38,47.57 0,23.24 12.91,47.35 53.38,47.35zm-74.52 -44.55l-14.42 0c-2.81,0 -5.6,0.42 -8.18,4.94 -2.59,9.69 -12.92,14.21 -27.13,14.21 -19.8,0 -32.28,-15.28 -32.28,-37.67 0,-23.88 13.78,-41.11 33.15,-41.11 13.56,0 23.67,4.95 26.47,14.21 2.58,4.52 5.38,4.95 8.18,4.95l14.21 0c5.59,0 9.47,-4.74 9.47,-9.9 -7.32,-19.37 -27.12,-34.65 -59.2,-34.65 -48.64,0 -65.43,38.31 -65.43,66.5 0,26.48 16.79,63.07 65.43,63.07 32.5,0 52.09,-14.85 59.2,-34.65 0,-5.17 -3.88,-9.9 -9.47,-9.9zm-13.53 229.83c0,2.61 -0.59,4.91 -1.75,6.93 -1.18,2.01 -2.88,3.57 -5.09,4.69 -2.24,1.14 -4.83,1.7 -7.8,1.7 -2.86,0 -5.38,-0.52 -7.53,-1.54 -2.15,-1.03 -3.82,-2.54 -5.01,-4.54 -1.2,-2 -1.8,-4.37 -1.8,-7.11 0,-2.6 0.59,-4.91 1.77,-6.93 1.16,-2.01 2.86,-3.57 5.09,-4.71 2.22,-1.12 4.81,-1.68 7.77,-1.68 2.86,0 5.38,0.5 7.55,1.53 2.15,1.03 3.83,2.55 5.02,4.55 1.19,2 1.78,4.37 1.78,7.11zm-4.78 0.09c0,-3.02 -0.85,-5.38 -2.53,-7.07 -1.69,-1.67 -4.07,-2.5 -7.14,-2.5 -3.08,0 -5.48,0.83 -7.19,2.49 -1.71,1.66 -2.56,4 -2.56,7.03 0,3.02 0.85,5.38 2.53,7.05 1.69,1.68 4.07,2.52 7.13,2.52 3.09,0 5.49,-0.84 7.2,-2.49 1.71,-1.66 2.56,-4 2.56,-7.03zm32.72 12.47l0 -15.28c0,-2.31 -0.56,-4 -1.67,-5.05 -1.11,-1.04 -2.9,-1.56 -5.38,-1.56 -1.33,0 -2.64,0.24 -3.94,0.74 -1.31,0.5 -2.43,1.2 -3.36,2.11 -0.81,0.74 -1.41,1.56 -1.83,2.48 -0.43,0.91 -0.64,1.88 -0.64,2.89l0 13.67 -4.54 0 0 -24.99 4.49 0 0 4.64c2.74,-3.6 6.4,-5.4 10.97,-5.4 3.45,0 6.06,0.8 7.81,2.43 1.75,1.63 2.63,4.03 2.63,7.22l0 16.1 -4.54 0zm14.29 0l0 -21.41 -4.87 0 0 -3.58 4.87 0 0 -2.12c0,-2.45 0.82,-4.36 2.45,-5.73 1.63,-1.37 3.89,-2.05 6.78,-2.05 1.81,0 3.45,0.2 4.93,0.63l-0.76 3.48c-1,-0.26 -2.14,-0.39 -3.39,-0.39 -3.64,0 -5.46,1.36 -5.46,4.06l0 2.12 8.51 0 0 3.58 -8.51 0 0 21.41 -4.55 0zm17.89 0l0 -24.99 4.53 0 0 24.99 -4.53 0zm-0.15 -29.58l0 -4.93 4.83 0 0 4.93 -4.83 0zm32.34 29.58l0 -3.92c-1.52,1.57 -3.18,2.72 -5,3.45 -1.82,0.73 -3.93,1.1 -6.32,1.1 -3.24,0 -5.73,-0.66 -7.47,-1.99 -1.74,-1.32 -2.62,-3.2 -2.62,-5.66 0,-2.67 1.15,-4.65 3.45,-5.96 2.3,-1.3 5.92,-2.02 10.85,-2.15l7.01 -0.19 0 -0.87c0,-2.07 -0.6,-3.59 -1.8,-4.58 -1.22,-0.97 -3.1,-1.46 -5.65,-1.46 -2.38,0 -4.24,0.28 -5.57,0.86 -1.34,0.59 -2.24,1.5 -2.69,2.77l-4.15 -0.54c1,-4.41 5.19,-6.61 12.6,-6.61 3.93,0 6.87,0.78 8.78,2.35 1.92,1.58 2.88,4 2.88,7.26l0 16.14 -4.3 0zm-0.1 -12.09l-6.96 0.2c-3.35,0.09 -5.79,0.5 -7.34,1.2 -1.54,0.71 -2.33,1.81 -2.33,3.29 0,1.41 0.57,2.49 1.7,3.23 1.13,0.75 2.75,1.12 4.88,1.12 1.52,0 2.96,-0.23 4.33,-0.71 1.35,-0.46 2.55,-1.11 3.55,-1.94 1.45,-1.19 2.17,-2.66 2.17,-4.4l0 -1.99zm33.49 12.09l0 -15.28c0,-2.31 -0.56,-4 -1.67,-5.05 -1.11,-1.04 -2.9,-1.56 -5.38,-1.56 -1.33,0 -2.65,0.24 -3.95,0.74 -1.3,0.5 -2.42,1.2 -3.35,2.11 -0.81,0.74 -1.41,1.56 -1.84,2.48 -0.42,0.91 -0.63,1.88 -0.63,2.89l0 13.67 -4.55 0 0 -24.99 4.5 0 0 4.64c2.74,-3.6 6.39,-5.4 10.97,-5.4 3.45,0 6.05,0.8 7.81,2.43 1.75,1.63 2.63,4.03 2.63,7.22l0 16.1 -4.54 0zm37.82 -8.51c-0.51,3 -1.86,5.29 -4.05,6.88 -2.19,1.6 -5.11,2.39 -8.74,2.39 -4.43,0 -7.88,-1.16 -10.37,-3.5 -2.49,-2.33 -3.74,-5.56 -3.74,-9.69 0,-2.64 0.57,-4.96 1.71,-6.96 1.14,-1.98 2.78,-3.54 4.93,-4.68 2.14,-1.12 4.67,-1.68 7.6,-1.68 3.33,0 6.03,0.71 8.11,2.12 2.07,1.41 3.43,3.48 4.07,6.17l-4.49 0.73c-1,-3.55 -3.6,-5.31 -7.82,-5.31 -2.93,0 -5.22,0.83 -6.87,2.5 -1.64,1.69 -2.46,4.02 -2.46,7.02 0,3.09 0.81,5.46 2.42,7.11 1.61,1.64 3.95,2.46 7,2.46 4.67,0 7.4,-1.85 8.21,-5.56l4.49 0zm-18.41 15.27c1.58,0.32 2.92,0.48 4.01,0.48 1,0 1.79,-0.12 2.33,-0.35 0.55,-0.25 0.82,-0.59 0.82,-1.05 0,-0.52 -0.3,-0.89 -0.91,-1.11 -0.62,-0.23 -1.69,-0.34 -3.19,-0.34l-1.22 0 1.98 -4.97 2.81 0.58 -0.88 2.27c3.45,0.36 5.18,1.64 5.18,3.86 0,1.26 -0.56,2.24 -1.67,2.91 -1.11,0.67 -2.7,1.01 -4.76,1.01 -2.1,0 -3.59,-0.18 -4.5,-0.53l0 -2.76zm44.37 -6.76l0 -3.92c-1.52,1.57 -3.18,2.72 -5,3.45 -1.82,0.73 -3.93,1.1 -6.32,1.1 -3.24,0 -5.74,-0.66 -7.48,-1.99 -1.73,-1.32 -2.61,-3.2 -2.61,-5.66 0,-2.67 1.15,-4.65 3.45,-5.96 2.3,-1.3 5.92,-2.02 10.85,-2.15l7.01 -0.19 0 -0.87c0,-2.07 -0.6,-3.59 -1.81,-4.58 -1.22,-0.97 -3.09,-1.46 -5.64,-1.46 -2.38,0 -4.25,0.28 -5.58,0.86 -1.34,0.59 -2.23,1.5 -2.68,2.77l-4.15 -0.54c1,-4.41 5.19,-6.61 12.6,-6.61 3.93,0 6.86,0.78 8.78,2.35 1.92,1.58 2.88,4 2.88,7.26l0 16.14 -4.3 0zm-0.1 -12.09l-6.96 0.2c-3.35,0.09 -5.79,0.5 -7.34,1.2 -1.55,0.71 -2.33,1.81 -2.33,3.29 0,1.41 0.56,2.49 1.7,3.23 1.13,0.75 2.75,1.12 4.88,1.12 1.52,0 2.96,-0.23 4.33,-0.71 1.35,-0.46 2.54,-1.11 3.54,-1.94 1.45,-1.19 2.18,-2.66 2.18,-4.4l0 -1.99zm28.85 0.88c0.07,2.58 0.93,4.62 2.58,6.12 1.66,1.53 3.9,2.28 6.69,2.28 4.67,0 7.55,-1.4 8.6,-4.21l4.36 0c-1.36,5.19 -5.74,7.78 -13.15,7.78 -4.25,0 -7.58,-1.16 -9.99,-3.48 -2.42,-2.31 -3.63,-5.5 -3.63,-9.56 0,-2.61 0.57,-4.93 1.68,-6.96 1.1,-2.02 2.71,-3.61 4.8,-4.78 2.1,-1.16 4.52,-1.73 7.29,-1.73 4.22,0 7.51,1.09 9.86,3.3 2.34,2.2 3.52,5.3 3.52,9.25l0 1.99 -22.61 0zm18.17 -3.44c-0.04,-2.42 -0.82,-4.28 -2.37,-5.61 -1.54,-1.32 -3.76,-1.97 -6.63,-1.97 -2.48,0 -4.53,0.67 -6.17,2.02 -1.65,1.36 -2.62,3.22 -2.91,5.56l18.08 0zm-7.74 -13.91l-4.58 0 6.8 -6.91 5.66 0 -7.88 6.91zm52.4 27.83c-2.46,0.81 -5.07,1.2 -7.88,1.2 -3.6,0 -6.22,-0.75 -7.85,-2.27 -1.63,-1.51 -2.45,-3.97 -2.45,-7.38l0 -9.23 -4.82 0 0 -6.96 4.82 0 0 -6.67 9.58 0 0 6.67 7.53 0 0 6.96 -7.53 0 0 8.54c0,1.14 0.28,1.96 0.84,2.5 0.57,0.53 1.47,0.79 2.73,0.79 1.05,0 2.34,-0.22 3.86,-0.67l1.17 6.52zm23.81 0.73l0 -3.54c-2.69,2.86 -5.95,4.3 -9.75,4.3 -3.13,0 -5.57,-0.85 -7.33,-2.56 -1.75,-1.71 -2.63,-4.07 -2.63,-7.09l0 -16.48 9.57 0 0 14.68c0,1.45 0.34,2.52 1.01,3.19 0.67,0.67 1.71,1.02 3.1,1.02 1.51,0 2.91,-0.56 4.2,-1.69 0.52,-0.45 0.93,-1 1.22,-1.63 0.29,-0.62 0.42,-1.26 0.42,-1.9l0 -13.67 9.58 0 0 25.37 -9.39 0zm36.82 0l0 -3.43c-2.31,2.8 -5.57,4.19 -9.75,4.19 -2.36,0 -4.45,-0.53 -6.3,-1.59 -1.85,-1.05 -3.3,-2.57 -4.36,-4.56 -1.05,-1.98 -1.57,-4.3 -1.57,-6.94 0,-2.65 0.52,-5 1.57,-7.1 1.06,-2.09 2.57,-3.74 4.55,-4.93 1.97,-1.19 4.3,-1.79 6.97,-1.79 3.77,0 6.67,1.19 8.7,3.59l0 -11.95 9.58 0 0 34.51 -9.39 0zm-0.13 -13.1c0,-1.81 -0.55,-3.26 -1.65,-4.36 -1.09,-1.08 -2.57,-1.62 -4.45,-1.62 -1.96,0 -3.46,0.54 -4.51,1.62 -1.05,1.1 -1.57,2.72 -1.57,4.84 0,2.03 0.52,3.59 1.55,4.68 1.02,1.1 2.49,1.65 4.39,1.65 1.84,0 3.37,-0.58 4.59,-1.74 1.1,-1.06 1.65,-2.41 1.65,-4.06l0 -1.01zm46.37 0.34c0,4.18 -1.41,7.48 -4.24,9.89 -2.84,2.43 -6.73,3.63 -11.64,3.63 -4.94,0 -8.76,-1.16 -11.46,-3.5 -2.71,-2.33 -4.06,-5.61 -4.06,-9.82 0,-4.22 1.42,-7.54 4.26,-9.96 2.83,-2.43 6.71,-3.63 11.64,-3.63 4.93,0 8.75,1.16 11.45,3.5 2.7,2.35 4.05,5.63 4.05,9.89zm-9.65 0.05c0,-2.07 -0.52,-3.65 -1.55,-4.75 -1.03,-1.08 -2.53,-1.62 -4.49,-1.62 -1.93,0 -3.43,0.54 -4.47,1.62 -1.05,1.1 -1.57,2.7 -1.57,4.8 0,2.06 0.52,3.63 1.54,4.72 1.03,1.1 2.54,1.65 4.5,1.65 1.93,0 3.41,-0.55 4.46,-1.65 1.06,-1.09 1.58,-2.68 1.58,-4.77zm13.53 12.71l0 -9.58 9.04 0 0 9.58 -9.04 0z"/>
 </g>
</svg>
