<?xml version="1.0" encoding="UTF-8"?>
<!DOCTYPE svg PUBLIC "-//W3C//DTD SVG 1.1//EN" "http://www.w3.org/Graphics/SVG/1.1/DTD/svg11.dtd">
<!-- Creator: CorelDRAW 2021 (64 Bit) -->
<svg xmlns="http://www.w3.org/2000/svg" xml:space="preserve" width="2362px" height="1000px" version="1.1" style="shape-rendering:geometricPrecision; text-rendering:geometricPrecision; image-rendering:optimizeQuality; fill-rule:evenodd; clip-rule:evenodd"
viewBox="0 0 2362 999.91"
 xmlns:xlink="http://www.w3.org/1999/xlink"
 xmlns:xodm="http://www.corel.com/coreldraw/odm/2003">
 <defs>
  <style type="text/css">
   <![CDATA[
    .str0 {stroke:#FEFEFE;stroke-width:0.23;stroke-miterlimit:2.6131}
    .fil5 {fill:none}
    .fil4 {fill:#FEFEFE}
    .fil0 {fill:#ED3237}
    .fil3 {fill:#3E4095}
    .fil2 {fill:#FEFEFE;fill-rule:nonzero}
    .fil1 {fill:#373435;fill-rule:nonzero}
   ]]>
  </style>
 </defs>
 <g id="Camada_x0020_1">
  <metadata id="CorelCorpID_0Corel-Layer"/>
  <g id="_1645903697536">
   <polygon class="fil0" points="615.33,661.72 2127.6,661.72 2127.6,338.19 615.33,338.19 "/>
   <path class="fil1" d="M639.78 619.8l69.44 0 28.89 -142.84c4.21,-20.78 5.61,-30.84 17.98,-30.84 8.56,0 12.27,6.7 10.85,13.74 -1.36,6.71 -7.72,13.08 -18.32,13.75l-10.51 51.97c17.07,-1.34 22.81,6.37 20.91,15.76 -1.3,6.37 -8.33,16.1 -27.36,16.1l-12.61 62.36 32.02 0c41.54,0 72.89,-35.87 80.08,-71.42 4.48,-22.13 -0.31,-43.92 -16.82,-56.33 11.16,-9.72 18.52,-24.14 21.44,-38.55 7.32,-36.22 -11.65,-74.11 -65.19,-72.77 -52.4,2.02 -89.22,33.53 -98.85,81.14l-31.95 157.93zm200.07 0l69.43 0 31.14 -153.9c2.38,-11.74 10.89,-17.77 18.82,-17.77 8.87,0 14.95,6.03 12.57,17.77l-4.48 22.13 -20.92 0 -12.07 59.68 20.92 0 -14.58 72.09 69.44 0 29.77 -147.19c13.44,-66.39 -28.84,-92.55 -67.02,-91.88 -53.58,0 -93.68,44.6 -102.84,89.86l-30.18 149.21zm201.97 0l69.76 0 18.65 -92.21 32.34 0 -18.65 92.21 70.07 0 47.56 -235.04 -70.08 0 -16.55 81.81 -32.34 0 16.55 -81.81 -69.76 0 -47.55 235.04zm203.56 0l69.43 0 31.15 -153.9c2.37,-11.74 10.88,-17.77 18.8,-17.77 8.88,0 14.96,6.03 12.58,17.77l-4.47 22.13 -20.94 0 -12.07 59.68 20.93 0 -14.59 72.09 69.44 0 29.79 -147.19c13.42,-66.39 -28.84,-92.55 -67.03,-91.88 -53.58,0 -93.67,44.6 -102.83,89.86l-30.19 149.21zm196.27 0l66.89 0 35.97 -140.16 3.82 123.73c0.29,11.07 8.9,17.16 19.67,17.16 11.1,0 23.57,-6.76 28.75,-19.84l52.39 -121.05 -20.43 140.16 66.9 0 23.36 -189.11c4.97,-40.23 -13.35,-49.96 -35.23,-49.96 -22.97,0.67 -40.72,0.67 -58.17,39.9l-31.08 72.09 -3.33 -79.12c-0.71,-18.45 -5.58,-33.54 -39.64,-32.87 -29.93,0.67 -46.86,13.74 -58.91,57.67l-50.96 181.4zm279.33 0l69.44 0 31.13 -153.9c2.38,-11.74 10.89,-17.77 18.82,-17.77 8.88,0 14.95,6.03 12.57,17.77l-4.48 22.13 -20.92 0 -12.08 59.68 20.93 0 -14.58 72.09 69.44 0 29.77 -147.19c13.43,-66.39 -28.84,-92.55 -67.01,-91.88 -53.6,0 -93.69,44.6 -102.85,89.86l-30.18 149.21zm192.46 0l68.17 0c39.63,0 88.34,-19.78 93.44,-70.08 4.55,-36.54 -22.39,-57 -47.44,-80.47 -3.64,-4.02 -5.04,-8.04 -5.19,-10.39 1.71,-5.36 7.65,-8.05 18.11,-8.05l45.97 0 13.37 -66.05 -68.8 0c-22.2,0 -70.65,9.05 -82.13,62.69 -6.87,30.86 14.45,49.29 39.86,78.8 6.82,7.04 7.82,13.08 6.94,17.44 -1.49,7.38 -11.09,9.39 -17.12,9.39l-51.69 0 -13.49 66.72z"/>
   <path class="fil2" d="M648.03 612.52l69.44 0 28.89 -142.84c4.21,-20.78 5.61,-30.84 17.98,-30.84 8.55,0 12.27,6.71 10.85,13.74 -1.36,6.71 -7.72,13.08 -18.32,13.75l-10.52 51.97c17.08,-1.34 22.81,6.38 20.91,15.76 -1.29,6.38 -8.32,16.1 -27.35,16.1l-12.62 62.36 32.03 0c41.54,0 72.89,-35.87 80.08,-71.42 4.48,-22.12 -0.31,-43.92 -16.82,-56.33 11.16,-9.72 18.52,-24.14 21.43,-38.56 7.33,-36.21 -11.64,-74.1 -65.18,-72.75 -52.4,2 -89.22,33.52 -98.85,81.14l-31.95 157.92zm200.07 0l69.43 0 31.14 -153.9c2.38,-11.74 10.89,-17.77 18.82,-17.77 8.87,0 14.95,6.03 12.57,17.77l-4.48 22.13 -20.93 0 -12.07 59.69 20.93 0 -14.59 72.08 69.44 0 29.78 -147.19c13.43,-66.4 -28.84,-92.55 -67.02,-91.87 -53.59,0 -93.68,44.58 -102.84,89.85l-30.18 149.21zm201.97 0l69.76 0 18.65 -92.21 32.34 0 -18.65 92.21 70.07 0 47.55 -235.05 -70.08 0 -16.55 81.82 -32.33 0 16.55 -81.82 -69.76 0 -47.55 235.05zm203.56 0l69.43 0 31.14 -153.9c2.38,-11.74 10.89,-17.77 18.81,-17.77 8.88,0 14.96,6.03 12.58,17.77l-4.47 22.13 -20.93 0 -12.08 59.69 20.93 0 -14.59 72.08 69.44 0 29.79 -147.19c13.42,-66.4 -28.85,-92.55 -67.03,-91.87 -53.59,0 -93.68,44.58 -102.84,89.85l-30.18 149.21zm196.26 0l66.9 0 35.97 -140.15 3.82 123.72c0.29,11.07 8.89,17.16 19.68,17.16 11.09,0 23.55,-6.76 28.74,-19.84l52.39 -121.04 -20.43 140.15 66.9 0 23.36 -189.11c4.97,-40.23 -13.36,-49.95 -35.23,-49.95 -22.97,0.67 -40.73,0.67 -58.17,39.9l-31.08 72.08 -3.32 -79.13c-0.71,-18.44 -5.58,-33.53 -39.66,-32.85 -29.93,0.67 -46.84,13.74 -58.9,57.66l-50.97 181.4zm279.34 0l69.44 0 31.13 -153.9c2.37,-11.74 10.89,-17.77 18.82,-17.77 8.88,0 14.94,6.03 12.57,17.77l-4.48 22.13 -20.92 0 -12.08 59.69 20.92 0 -14.58 72.08 69.45 0 29.77 -147.19c13.43,-66.4 -28.84,-92.55 -67.02,-91.87 -53.58,0 -93.68,44.58 -102.83,89.85l-30.19 149.21zm192.46 0l68.17 0c39.64,0 88.34,-19.78 93.44,-70.07 4.54,-36.55 -22.39,-57.01 -47.45,-80.47 -3.63,-4.04 -5.03,-8.05 -5.19,-10.4 1.72,-5.37 7.65,-8.05 18.12,-8.05l45.97 0 13.36 -66.06 -68.8 0c-22.19,0 -70.63,9.06 -82.12,62.71 -6.88,30.85 14.44,49.29 39.86,78.8 6.82,7.04 7.82,13.07 6.94,17.43 -1.5,7.38 -11.1,9.39 -17.12,9.39l-51.69 0 -13.49 66.72z"/>
   <polygon class="fil3" points="234.4,661.72 577.14,661.72 577.14,338.19 234.4,338.19 "/>
   <polygon class="fil4" points="339.11,501.46 335.98,502.38 332.89,503.27 330.01,504.34 327.11,505.43 324.37,506.68 321.73,507.92 319.08,509.31 316.59,510.73 314.28,512.29 311.97,513.88 309.73,515.6 307.65,517.44 305.66,519.32 303.77,521.24 301.95,523.3 300.29,525.46 298.63,527.77 297.13,530.09 295.82,532.57 294.5,535.05 293.41,537.71 292.34,540.45 291.44,543.33 290.6,546.24 289.85,549.29 289.28,552.45 288.78,555.68 288.47,559.06 288.22,562.54 288.11,566.09 288.11,569.74 288.29,573.54 288.78,576.28 289.45,578.91 290.2,581.5 290.95,583.98 291.84,586.47 292.76,588.78 293.83,591.09 294.9,593.32 296.07,595.39 297.31,597.55 298.63,599.53 300.04,601.42 301.53,603.34 303.02,605.08 304.66,606.82 306.33,608.48 308.14,610.05 309.98,611.54 311.87,613.03 313.86,614.35 315.92,615.66 318.09,616.91 320.32,618.08 322.55,619.14 324.87,620.14 327.35,621.13 329.84,621.95 332.39,622.8 335.05,623.54 337.79,624.19 340.52,624.78 343.4,625.36 347.05,625.18 350.53,624.93 354.01,624.53 357.32,624.11 360.55,623.62 363.68,622.94 366.76,622.2 369.75,621.38 372.62,620.38 375.43,619.32 378.09,618.15 380.75,616.91 383.24,615.59 385.62,614.1 387.93,612.53 390.1,610.87 392.26,609.05 394.25,607.14 396.13,605.15 397.95,603.02 399.69,600.86 401.28,598.47 402.77,596.06 404.16,593.5 405.5,590.76 406.64,588.04 407.74,585.13 408.73,582.07 409.55,578.91 410.37,575.7 411.04,572.31 411.54,568.82 411.44,566.59 411.37,564.45 411.19,562.21 411.04,560.05 410.7,557.81 410.44,555.68 410.05,553.52 409.63,551.36 409.13,549.22 408.63,547.06 408.06,544.99 407.39,542.93 406.64,540.84 405.82,538.78 405,536.72 404.09,534.66 403.02,532.67 401.92,530.68 400.78,528.7 399.54,526.7 398.2,524.79 396.81,522.91 395.31,520.99 393.65,519.08 392.01,517.27 390.27,515.45 388.36,513.64 386.37,511.9 384.31,510.15 382.15,508.42 379.83,506.68 377.52,505.01 374.86,503.37 372.37,501.63 369.89,499.89 367.41,498.15 365.09,496.32 362.78,494.43 360.55,492.51 358.39,490.63 356.32,488.64 354.33,486.65 352.35,484.56 350.53,482.5 348.72,480.36 346.98,478.13 345.32,475.89 343.75,473.66 342.26,471.24 340.84,468.93 339.53,466.45 338.29,463.96 337.12,461.48 336.05,458.84 335.05,456.19 334.14,453.53 333.32,450.81 332.57,447.99 332,445.1 331.4,442.19 331,439.21 330.66,436.15 330.41,433.1 330.26,429.95 330.5,425.65 330.9,421.42 331.57,417.3 332.39,413.31 333.39,409.35 334.56,405.44 335.88,401.71 337.37,398.02 339.03,394.43 340.84,390.96 342.83,387.65 344.89,384.41 347.23,381.29 349.61,378.31 352.17,375.5 354.83,372.77 357.64,370.18 360.62,367.71 363.68,365.49 366.84,363.32 370.14,361.34 373.62,359.52 377.1,357.86 380.75,356.38 384.48,355.05 388.28,353.89 392.26,352.89 396.23,352.14 400.28,351.57 404.51,351.15 408.73,351 413.1,351 416.33,351.07 419.57,351.32 422.8,351.65 426.02,352.14 429.16,352.73 432.32,353.49 435.44,354.3 438.53,355.22 441.51,356.38 444.46,357.54 447.44,358.93 450.28,360.34 453.16,362.01 455.89,363.65 458.55,365.49 461.19,367.45 463.77,369.54 466.15,371.67 468.57,374.01 470.88,376.49 473.12,378.95 475.18,381.69 477.16,384.41 479.15,387.32 480.89,390.38 482.63,393.54 484.19,396.77 485.69,400.08 487.03,403.55 488.17,407.19 489.34,410.84 490.26,414.64 490.66,417.3 491.08,419.85 491.33,422.42 491.47,424.9 491.66,427.39 491.73,429.87 491.73,432.25 491.66,434.59 491.47,436.97 491.23,439.21 490.98,441.53 490.66,443.76 490.26,445.92 489.76,448.16 489.26,450.32 488.67,452.39 488.02,454.52 487.36,456.61 486.61,458.59 485.79,460.66 484.94,462.64 484.05,464.63 483.13,466.62 482.14,468.51 481.14,470.42 480.07,472.31 478.98,474.22 477.84,476.04 476.67,477.95 475.43,479.77 474.19,481.6 472.94,483.42 477.26,484.32 481.39,485.48 485.44,486.65 489.42,487.89 493.15,489.28 496.87,490.77 500.35,492.36 503.73,494.08 507.06,495.82 510.19,497.73 513.17,499.72 515.98,501.88 518.71,504.02 521.37,506.33 523.85,508.74 526.17,511.22 528.33,513.88 530.39,516.52 532.38,519.32 534.19,522.23 535.86,525.29 537.35,528.34 538.74,531.58 539.98,534.91 541.15,538.29 542.14,541.84 542.97,545.42 543.71,549.12 544.3,553.02 544.7,556.89 545.05,560.98 545.2,565.1 544.95,569.32 544.56,573.47 543.96,577.52 543.31,581.4 542.47,585.22 541.48,588.93 540.41,592.58 539.24,596.06 537.85,599.44 536.36,602.67 534.69,605.82 532.95,608.88 531.06,611.87 528.98,614.67 526.84,617.41 524.53,619.97 522.04,622.45 519.46,624.86 516.72,627.09 513.84,629.25 510.86,631.32 507.7,633.21 504.4,635.04 501.02,636.79 497.44,638.35 493.71,639.84 489.91,641.16 485.94,642.4 481.81,643.57 477.51,644.56 473.12,645.46 468.57,646.21 466.26,646.31 464.02,646.21 461.68,646.21 459.45,646.05 457.21,645.88 455.08,645.7 452.84,645.38 450.68,645.06 448.61,644.71 446.45,644.21 444.39,643.72 442.33,643.22 440.26,642.65 438.28,641.98 436.29,641.23 434.3,640.52 432.39,639.77 430.5,638.85 428.59,637.93 426.67,637.03 424.86,636.04 423.04,634.95 421.21,633.8 419.49,632.64 417.65,631.47 415.91,630.15 414.27,628.91 412.6,627.52 410.94,626.1 409.3,624.61 407.64,623.12 406.07,621.56 404.41,623.29 402.77,624.86 401.03,626.42 399.29,627.84 397.45,629.25 395.64,630.58 393.82,631.89 392.01,633.06 390.17,634.13 388.28,635.2 386.37,636.19 384.38,637.18 382.49,638.03 380.5,638.85 378.52,639.59 376.53,640.34 374.54,640.98 372.47,641.59 370.39,642.08 368.33,642.58 366.26,643.07 364.18,643.4 362.11,643.82 359.98,644.07 357.89,644.31 355.75,644.56 353.59,644.71 351.53,644.89 349.37,644.96 347.13,645.06 342.83,645.06 338.96,644.46 335.13,643.82 331.4,642.97 327.85,642.08 324.29,641.08 320.89,640.02 317.59,638.85 314.45,637.53 311.3,636.11 308.32,634.62 305.41,633.06 302.6,631.39 299.87,629.58 297.31,627.66 294.83,625.68 292.44,623.54 290.11,621.38 287.97,619.07 285.81,616.59 283.89,614.1 282.01,611.44 280.19,608.73 278.52,605.9 276.96,603.02 275.47,599.94 274.12,596.81 272.88,593.5 271.74,590.17 270.65,586.71 269.65,583.06 268.83,579.41 268.09,575.61 267.69,570.74 267.51,565.94 267.51,561.22 267.77,556.65 268.19,552.27 268.83,547.98 269.58,543.83 270.57,539.77 271.82,535.8 273.13,532.07 274.62,528.34 276.29,524.87 278.1,521.49 280.09,518.19 282.25,515.03 284.49,512.04 286.88,509.16 289.36,506.43 292.09,503.84 294.83,501.38 297.73,499.05 300.71,496.91 303.77,494.83 307,492.94 310.23,491.19 313.61,489.53 317.09,488.04 320.56,486.72 324.22,485.56 327.85,484.49 331.57,483.57 335.3,482.82 335.98,483.42 336.62,483.99 337.29,484.56 337.86,485.23 338.36,485.81 338.86,486.4 339.35,486.97 339.77,487.55 340.17,488.14 340.52,488.79 340.84,489.38 341.09,489.95 341.34,490.53 341.59,491.12 341.77,491.7 341.84,492.26 341.91,492.86 342.01,493.43 342.01,495.17 341.91,495.74 341.77,496.32 341.59,496.91 341.42,497.49 341.16,498.05 340.92,498.65 340.6,499.15 340.27,499.72 339.93,500.29 339.53,500.89 "/>
   <polygon class="fil5 str0" points="339.11,501.46 335.98,502.38 332.89,503.27 330.01,504.34 327.11,505.43 324.37,506.68 321.73,507.92 319.07,509.31 316.59,510.73 314.28,512.29 311.97,513.88 309.73,515.6 307.65,517.44 305.66,519.32 303.77,521.24 301.95,523.3 300.29,525.46 298.63,527.77 297.13,530.09 295.82,532.57 294.5,535.05 293.41,537.71 292.34,540.45 291.44,543.33 290.6,546.24 289.85,549.29 289.28,552.45 288.78,555.68 288.47,559.06 288.22,562.54 288.11,566.09 288.11,569.74 288.29,573.54 288.78,576.28 289.45,578.91 290.2,581.5 290.95,583.98 291.84,586.47 292.76,588.78 293.83,591.09 294.9,593.32 296.07,595.38 297.31,597.55 298.63,599.53 300.04,601.42 301.53,603.34 303.02,605.08 304.66,606.82 306.33,608.48 308.14,610.05 309.98,611.54 311.87,613.03 313.86,614.35 315.92,615.66 318.09,616.91 320.32,618.08 322.55,619.14 324.87,620.14 327.35,621.13 329.84,621.95 332.39,622.8 335.05,623.54 337.79,624.19 340.52,624.78 343.4,625.36 347.05,625.18 350.53,624.93 354.01,624.53 357.32,624.11 360.55,623.62 363.68,622.94 366.76,622.2 369.75,621.38 372.62,620.38 375.43,619.32 378.09,618.15 380.75,616.91 383.24,615.59 385.62,614.1 387.93,612.53 390.1,610.87 392.26,609.05 394.25,607.14 396.13,605.15 397.95,603.02 399.69,600.86 401.28,598.47 402.77,596.06 404.16,593.5 405.5,590.76 406.64,588.04 407.74,585.13 408.73,582.07 409.55,578.91 410.37,575.7 411.04,572.31 411.54,568.82 411.44,566.59 411.37,564.45 411.19,562.21 411.04,560.05 410.7,557.81 410.44,555.68 410.05,553.52 409.63,551.35 409.13,549.22 408.63,547.06 408.06,544.99 407.39,542.93 406.64,540.84 405.82,538.78 405,536.72 404.09,534.66 403.02,532.67 401.92,530.68 400.78,528.7 399.54,526.7 398.2,524.79 396.81,522.91 395.31,520.99 393.65,519.08 392.01,517.27 390.27,515.45 388.36,513.64 386.37,511.9 384.31,510.15 382.15,508.42 379.83,506.68 377.52,505.01 374.86,503.37 372.37,501.63 369.89,499.89 367.41,498.15 365.09,496.32 362.78,494.43 360.55,492.51 358.39,490.63 356.32,488.64 354.33,486.65 352.35,484.56 350.53,482.5 348.72,480.36 346.98,478.13 345.32,475.89 343.75,473.66 342.26,471.24 340.84,468.93 339.53,466.45 338.28,463.96 337.12,461.48 336.05,458.84 335.05,456.19 334.14,453.53 333.32,450.81 332.57,447.99 332,445.1 331.4,442.19 331,439.21 330.66,436.15 330.41,433.1 330.26,429.95 330.5,425.65 330.9,421.42 331.57,417.3 332.39,413.31 333.39,409.35 334.56,405.44 335.88,401.71 337.37,398.02 339.03,394.43 340.84,390.95 342.83,387.65 344.89,384.41 347.23,381.29 349.61,378.31 352.17,375.5 354.83,372.77 357.64,370.18 360.62,367.69 363.68,365.49 366.84,363.32 370.14,361.33 373.62,359.52 377.1,357.86 380.75,356.38 384.48,355.05 388.28,353.89 392.26,352.89 396.23,352.14 400.28,351.57 404.51,351.15 408.73,351 413.1,351 416.33,351.07 419.57,351.32 422.8,351.65 426.02,352.14 429.16,352.73 432.32,353.49 435.44,354.3 438.53,355.22 441.51,356.38 444.46,357.54 447.44,358.93 450.28,360.34 453.16,362.01 455.89,363.65 458.55,365.49 461.19,367.45 463.77,369.54 466.15,371.67 468.57,374.01 470.88,376.49 473.12,378.95 475.18,381.69 477.16,384.41 479.15,387.32 480.89,390.38 482.63,393.54 484.19,396.77 485.69,400.08 487.03,403.55 488.17,407.19 489.34,410.84 490.26,414.64 490.66,417.3 491.08,419.85 491.33,422.42 491.47,424.9 491.66,427.39 491.73,429.87 491.73,432.25 491.66,434.59 491.47,436.97 491.23,439.21 490.98,441.53 490.66,443.76 490.26,445.92 489.76,448.16 489.26,450.32 488.67,452.39 488.02,454.52 487.36,456.61 486.61,458.59 485.79,460.66 484.94,462.64 484.05,464.63 483.13,466.62 482.14,468.51 481.14,470.42 480.07,472.31 478.98,474.22 477.84,476.04 476.66,477.95 475.43,479.77 474.19,481.6 472.94,483.42 477.26,484.32 481.39,485.48 485.44,486.65 489.42,487.89 493.15,489.28 496.87,490.77 500.35,492.36 503.73,494.08 507.06,495.82 510.19,497.73 513.17,499.72 515.98,501.88 518.71,504.02 521.37,506.33 523.85,508.74 526.17,511.22 528.33,513.88 530.39,516.52 532.38,519.32 534.19,522.23 535.86,525.29 537.35,528.34 538.74,531.58 539.98,534.91 541.15,538.29 542.14,541.84 542.97,545.42 543.71,549.12 544.3,553.02 544.7,556.89 545.05,560.98 545.2,565.1 544.95,569.32 544.56,573.47 543.96,577.52 543.31,581.4 542.47,585.22 541.48,588.93 540.41,592.58 539.24,596.06 537.85,599.44 536.36,602.67 534.69,605.82 532.95,608.88 531.06,611.87 528.98,614.67 526.84,617.41 524.53,619.97 522.04,622.45 519.46,624.86 516.72,627.09 513.84,629.25 510.86,631.32 507.7,633.21 504.4,635.04 501.02,636.79 497.44,638.35 493.71,639.84 489.91,641.16 485.94,642.4 481.81,643.57 477.51,644.56 473.12,645.46 468.57,646.21 466.26,646.31 464.02,646.21 461.68,646.21 459.45,646.05 457.21,645.88 455.08,645.7 452.84,645.38 450.67,645.06 448.61,644.71 446.45,644.21 444.39,643.72 442.32,643.22 440.26,642.65 438.28,641.98 436.29,641.23 434.3,640.52 432.39,639.77 430.5,638.85 428.59,637.93 426.67,637.03 424.86,636.04 423.04,634.95 421.21,633.8 419.49,632.64 417.65,631.47 415.91,630.15 414.27,628.91 412.6,627.52 410.94,626.1 409.3,624.61 407.64,623.12 406.07,621.55 404.41,623.29 402.77,624.86 401.03,626.42 399.29,627.84 397.45,629.25 395.64,630.58 393.82,631.89 392.01,633.06 390.17,634.13 388.28,635.2 386.37,636.19 384.38,637.18 382.49,638.03 380.5,638.85 378.52,639.59 376.53,640.34 374.54,640.98 372.47,641.59 370.39,642.08 368.33,642.58 366.26,643.07 364.18,643.4 362.11,643.82 359.98,644.07 357.89,644.31 355.75,644.56 353.59,644.71 351.53,644.89 349.37,644.96 347.13,645.06 342.83,645.06 338.96,644.46 335.13,643.82 331.4,642.97 327.85,642.08 324.29,641.08 320.89,640.02 317.59,638.85 314.45,637.53 311.3,636.11 308.32,634.62 305.41,633.06 302.6,631.39 299.87,629.58 297.31,627.66 294.83,625.68 292.44,623.54 290.11,621.38 287.97,619.07 285.81,616.59 283.89,614.1 282.01,611.44 280.19,608.73 278.52,605.9 276.96,603.02 275.47,599.94 274.12,596.81 272.88,593.5 271.74,590.17 270.65,586.71 269.65,583.06 268.83,579.41 268.09,575.61 267.69,570.74 267.51,565.94 267.51,561.22 267.77,556.65 268.19,552.27 268.83,547.98 269.58,543.83 270.57,539.77 271.81,535.8 273.13,532.07 274.62,528.34 276.29,524.87 278.1,521.49 280.09,518.18 282.25,515.03 284.49,512.04 286.88,509.16 289.36,506.43 292.09,503.84 294.83,501.38 297.73,499.05 300.71,496.91 303.77,494.83 307,492.94 310.23,491.19 313.61,489.53 317.09,488.04 320.56,486.72 324.22,485.56 327.85,484.49 331.57,483.57 335.3,482.82 335.98,483.42 336.62,483.99 337.29,484.56 337.86,485.23 338.36,485.81 338.86,486.4 339.35,486.97 339.77,487.55 340.17,488.14 340.52,488.79 340.84,489.38 341.09,489.95 341.34,490.53 341.59,491.12 341.77,491.7 341.84,492.26 341.91,492.86 342.01,493.43 342.01,495.17 341.91,495.74 341.77,496.32 341.59,496.91 341.42,497.49 341.16,498.05 340.92,498.65 340.6,499.15 340.27,499.72 339.93,500.29 339.53,500.89 "/>
   <polygon class="fil0" points="391.41,372.08 395.38,371.16 399.28,370.51 403.09,369.91 406.81,369.59 410.44,369.42 414.01,369.34 417.4,369.51 420.8,369.84 424.03,370.34 427.16,370.92 430.25,371.76 433.2,372.65 436.03,373.74 438.77,375.06 441.5,376.38 444.06,377.94 446.45,379.61 448.86,381.42 451.09,383.41 453.33,385.49 455.31,387.71 457.3,390.05 459.19,392.53 460.93,395.16 462.59,397.9 464.16,400.7 465.58,403.69 466.9,406.77 468.14,409.9 469.31,413.2 470.3,416.61 471.2,420.08 471.37,422.97 471.44,425.88 471.37,428.6 471.3,431.41 471.05,434.15 470.8,436.81 470.37,439.37 469.88,442 469.38,444.49 468.71,446.98 467.97,449.46 467.07,451.77 466.15,454.17 465.08,456.42 464.01,458.73 462.77,460.89 461.43,463.02 460.04,465.11 458.45,467.18 456.8,469.16 455.07,471.07 453.25,472.97 451.34,474.78 449.28,476.61 447.12,478.26 444.8,480 442.5,481.59 439.91,483.15 437.35,484.64 434.62,486.13 431.81,487.45 428.9,488.77 428.33,489.19 427.76,489.52 427.26,489.94 426.84,490.26 426.34,490.68 425.92,491.01 425.52,491.43 425.1,491.85 424.78,492.25 424.43,492.67 424.18,493.09 423.86,493.49 423.61,493.91 423.36,494.31 423.19,494.73 423.04,495.23 422.86,495.65 422.69,496.15 422.62,496.55 422.54,497.04 422.54,499.03 422.62,499.53 422.69,500.02 422.79,500.62 422.94,501.12 423.11,501.69 423.29,502.18 423.53,502.76 423.78,503.35 424.11,504 424.53,504.57 424.85,505.17 425.27,505.74 425.59,506.24 426.02,506.81 426.42,507.23 426.76,507.73 427.16,508.05 427.59,508.47 428.01,508.8 428.41,509.15 428.9,509.39 429.32,509.72 429.74,509.89 430.14,510.14 430.64,510.21 431.14,510.39 431.56,510.46 432.06,510.53 432.55,510.63 433.05,510.63 433.55,510.53 434.04,510.53 434.54,510.46 435.04,510.29 435.53,510.14 436.11,509.96 436.6,509.79 437.18,509.54 437.77,509.29 438.27,508.97 442.89,507.48 447.36,506.31 451.66,505.42 455.97,504.67 460.11,504.25 464.16,504.07 468.14,504.07 471.94,504.32 475.67,504.82 479.22,505.49 482.7,506.41 486.1,507.55 489.34,508.8 492.47,510.29 495.45,512.03 498.35,513.87 501.09,515.83 503.65,518.07 506.14,520.4 508.44,522.96 510.68,525.59 512.77,528.43 514.65,531.31 516.47,534.39 518.14,537.52 519.63,540.83 520.94,544.3 522.19,547.79 523.18,551.43 524.1,555.17 524.84,558.96 525.42,562.77 525.24,565.5 525.01,568.23 524.67,570.8 524.35,573.35 523.85,575.84 523.35,578.33 522.78,580.63 522.04,582.97 521.29,585.28 520.55,587.45 519.63,589.58 518.63,591.74 517.63,593.73 516.57,595.71 515.4,597.61 514.16,599.52 512.84,601.34 511.42,603.07 510.03,604.73 508.54,606.38 506.88,607.97 505.21,609.53 503.57,610.92 501.76,612.34 499.85,613.66 497.93,615 495.87,616.24 493.8,617.39 491.64,618.55 489.41,619.62 487.17,620.62 484.79,621.54 482.45,622.35 480.07,623.1 477.75,623.77 475.42,624.35 473.18,624.84 470.87,625.26 468.63,625.59 466.4,625.83 464.16,625.91 462.02,626.01 459.79,626.01 457.63,625.83 455.47,625.66 453.33,625.34 451.27,625.01 449.18,624.52 447.12,624.02 445.05,623.35 442.99,622.6 441.01,621.78 439.01,620.86 437.03,619.95 435.04,618.88 433.13,617.73 431.24,616.49 429.32,615.15 427.41,613.76 425.52,612.17 423.69,610.6 421.87,608.96 420.13,607.22 418.31,605.31 419.63,602.75 420.87,600.17 422.12,597.61 423.29,595.05 424.28,592.49 425.27,589.9 426.17,587.34 427.01,584.79 427.83,582.12 428.5,579.56 429.08,577.01 429.65,574.45 430.07,571.86 430.49,569.3 430.74,566.74 430.99,564.18 431.07,561.6 431.07,556.48 430.89,553.92 430.64,551.43 430.32,548.86 429.9,546.29 429.32,543.73 428.75,541.18 428.01,538.69 427.16,536.1 426.27,533.55 425.27,531.06 424.11,528.5 422.86,526.02 421.55,523.46 420.48,521.89 419.31,520.22 418.24,518.66 417.07,517.17 415.91,515.58 414.76,514.12 413.59,512.62 412.42,511.21 411.29,509.72 410.12,508.3 408.95,506.91 407.73,505.56 406.49,504.18 405.32,502.86 404.08,501.52 402.83,500.28 401.59,499.03 400.35,497.79 399.11,496.55 397.86,495.31 396.55,494.16 395.31,492.99 393.99,491.85 392.74,490.76 391.41,489.69 390.09,488.62 388.85,487.53 387.53,486.53 386.19,485.46 384.87,484.54 383.55,483.55 382.14,482.56 379.75,481.24 377.52,479.85 375.28,478.35 373.12,476.87 371.13,475.38 369.14,473.79 367.32,472.14 365.59,470.48 363.92,468.84 362.43,467 360.97,465.26 359.62,463.45 358.38,461.53 357.14,459.65 356.07,457.66 355.15,455.67 354.25,453.62 353.41,451.45 352.76,449.38 352.1,447.15 351.59,444.91 351.17,442.67 350.85,440.37 350.6,438.05 350.46,435.64 350.46,430.67 350.6,428.18 350.85,425.63 351.17,422.97 351.59,420.34 352.1,417.68 352.52,415.55 353.09,413.55 353.66,411.46 354.33,409.47 355,407.59 355.74,405.68 356.49,403.86 357.31,402.05 358.23,400.3 359.13,398.57 360.04,396.9 361.11,395.34 362.21,393.67 363.28,392.18 364.42,390.69 365.66,389.2 366.9,387.81 368.25,386.49 369.56,385.15 370.98,383.83 372.47,382.67 373.93,381.42 375.42,380.28 377.09,379.19 378.66,378.19 380.4,377.12 382.06,376.23 383.87,375.31 385.69,374.38 387.53,373.57 389.42,372.82 "/>
  </g>
 </g>
</svg>
