<?xml version="1.0" encoding="UTF-8"?>
<!DOCTYPE svg PUBLIC "-//W3C//DTD SVG 1.1//EN" "http://www.w3.org/Graphics/SVG/1.1/DTD/svg11.dtd">
<!-- Creator: CorelDRAW 2021 (64 Bit) -->
<svg xmlns="http://www.w3.org/2000/svg" xml:space="preserve" width="1362px" height="1000px" version="1.1" style="shape-rendering:geometricPrecision; text-rendering:geometricPrecision; image-rendering:optimizeQuality; fill-rule:evenodd; clip-rule:evenodd"
viewBox="0 0 1362 999.85"
 xmlns:xlink="http://www.w3.org/1999/xlink"
 xmlns:xodm="http://www.corel.com/coreldraw/odm/2003">
 <defs>
  <style type="text/css">
   <![CDATA[
    .fil0 {fill:red}
   ]]>
  </style>
 </defs>
 <g id="Camada_x0020_1">
  <metadata id="CorelCorpID_0Corel-Layer"/>
  <g id="_1669980948224">
   <path class="fil0" d="M538.71 220.54l0 361c14.31,8.36 16.48,11.69 36.12,21.8 45.3,23.31 96.43,28.08 146.71,18.28 34.68,-6.75 58.29,-19.81 78.93,-37.29 2.7,-2.28 5.09,-4.66 7.47,-6.87 5.79,-5.34 15.42,-17.06 20.09,-23.68 27.79,-39.41 38.99,-89.33 25.85,-138.41 -3.89,-14.53 -9.83,-29.73 -16.81,-41.29 -16.48,-27.26 -31.31,-42.13 -58.67,-58.3 -37.98,-22.45 -90.44,-22.9 -131.47,-6.96 -3.78,1.47 -7.18,3.41 -11.09,4.77l0 -93.05 -97.13 0zm96.57 314.29c4.84,8.06 50.49,8.31 63.52,5.97 22.35,-4.01 35.7,-14.38 45.6,-26.86 30.31,-38.22 25.32,-134.96 -47.27,-134.6 -24.24,0.12 -40.21,8.1 -50.21,22.04 -12.9,17.96 -11.65,36 -11.65,60.97 0,24.16 0.04,48.32 0.01,72.48z"/>
   <path class="fil0" d="M276.32 315.84l6.8 79.01c15.36,-5 13.24,-7.57 40.04,-13.74 24.84,-5.72 72.11,-10.86 95,0.75 15.11,7.67 16.32,17.63 16.36,30.99 0.01,2.56 0.29,4.76 -0.69,6.75 -7.82,1.28 -18.75,1.55 -27.1,2.17 -24.92,1.84 -55.39,3.11 -77.88,10.26 -31.13,9.89 -53.76,27.04 -66.81,50.88 -15.89,29.04 -14.02,67.37 2.13,94.54 13.27,22.34 37.72,40.17 70.23,48.15 51.02,12.54 123.82,3.43 167.31,-29.32 8.17,-6.15 8.83,-8.09 15.68,-14.46 4.16,-3.87 3.51,-4.15 3.46,-11.11l0 -162.17c0,-19.09 1.01,-41.11 -0.14,-59.84 -6.17,-4.99 -10.94,-11.32 -20.49,-18.8 -51.5,-40.38 -133.24,-40.47 -193.92,-24.44 -12.97,3.43 -25.53,9.24 -29.98,10.38zm159.93 169.24c-12.84,0.57 -25.76,1.95 -38.45,2.84 -22.63,1.59 -43.99,6.75 -50.16,31.81 -1.39,5.63 -1.62,12.41 0.1,17.87 7.64,24.31 43.14,30 68.95,10.98 22.85,-16.84 19.08,-36.55 19.56,-63.5z"/>
   <path class="fil0" d="M1096.88 522.62c-0.97,-1.51 1.22,-1.68 -2.48,-0.39l-8.82 4.24c-30.73,12.88 -65.94,19.07 -98.78,10.74 -32.94,-8.36 -61.82,-32.25 -63.85,-69.81 -2.29,-42.25 23.64,-67.57 55.85,-77.84 24.3,-7.74 62.8,-5.41 87.51,3.55 11.88,4.31 15.73,7.48 22.67,10.27l8.55 -84.96 0 -4.3c-12.39,-4.7 -12.39,-6.75 -30.03,-11.88 -33.35,-9.7 -79.89,-11.19 -112.92,-4.32 -22.24,4.62 -43,12.85 -60,23.2l-18.22 12.64c-6.93,5.34 -23.38,20.4 -26.4,26.7 3.49,9.07 11.91,17.59 19.6,44.28 26.02,90.3 -20.54,145.02 -23.17,154.48l8.94 11.14c13.48,13.26 15.8,17.47 33.48,28.95 16.76,10.87 35.4,19.37 57.49,25.01 33.95,8.67 76.34,8.1 111.16,-0.43 16.72,-4.09 22.84,-8.24 30.97,-10.52l8.45 -90.75z"/>
   <path class="fil0" d="M365.66 688.46c-2.69,-1.47 -4.27,-3.4 -8.07,-5 -16.48,-6.96 -44.48,0.5 -44.51,32.77 -0.04,34.63 36.59,36.94 48.99,27.06 2.25,-1.79 1.64,-2.2 4.23,-3.56 1.95,8.12 1.48,7.1 11.19,6.8l0.1 -89.84 -11.94 -0.13 0.01 31.9zm-0.14 8.74c-4.3,-2.4 -6.65,-5.57 -14.99,-6.67 -25.13,-3.3 -28.64,25.82 -21.78,38.76 5.21,9.83 19.16,13.25 30.58,6.54 7.47,-4.39 6.34,-5.8 6.34,-16.21 0,-7.13 0.38,-15.42 -0.15,-22.42z"/>
   <path class="fil0" d="M567.42 682.3c-10.42,2.36 -15.73,6.67 -20.13,13.59 -14.06,22.15 0.2,60.13 39.18,51.43 40,-8.93 31.12,-76.44 -19.05,-65.02zm4.23 8.55c-12.15,2.84 -18.85,13.97 -16.47,29.18 4.55,28.91 48.22,25.65 43.13,-10.59 -1.73,-12.31 -12.12,-22 -26.66,-18.59z"/>
   <path class="fil0" d="M1110.95 720.19l0 -10.67c-3.12,-6.26 -4.21,-29.6 -37.31,-28.25 -41.91,1.7 -43.83,64.37 -0.01,66.98 10.26,0.62 19.18,-2.34 25.57,-7.14 9.56,-7.2 9.08,-15.58 11.75,-20.92zm-40.3 -29.13c-26.57,6.45 -19.75,55.65 11.65,47.44 25.61,-6.7 19.91,-55.1 -11.65,-47.44z"/>
   <path class="fil0" d="M979.15 684.72l0.04 9.02c16.33,-3.36 40.73,-10.29 39.74,16.31 -10.63,-1.88 -20.25,-4.75 -31.64,-0.82 -8.76,3.03 -15.88,9.99 -14.14,21.93 2.8,19.25 28.6,20.54 41.19,12.59 1.99,-1.25 3.46,-2.96 5.38,-3.58l1.23 6.34 9.99 0.11c0.93,-8.31 0.19,-20.95 0.19,-29.71 0,-10.63 1.24,-19.16 -4.26,-26.49 -4.2,-5.59 -13.83,-8.5 -21.22,-9.07 -10.97,-0.84 -17.19,0.98 -26.5,3.37zm39.84 33.91c-8.21,-1.41 -28.2,-5.98 -32.6,4.63 -4.18,10.09 5.56,20.38 22.34,14.19 13.16,-4.85 10.29,-8.38 10.26,-18.82z"/>
   <path class="fil0" d="M395.36 684.76l0.03 9.01c9.56,-1.87 16.29,-4.86 27.13,-2.7 10.83,2.17 12.65,7.25 12.65,18.92 -11.02,-1.38 -19.25,-4.88 -31.35,-0.91 -8.86,2.92 -15.93,9.4 -14.59,21.4 1.13,10.07 8.37,15.93 18.52,17.46 13.47,2.05 20.48,-2.71 28.15,-7.99l1.17 6.44 10.17 0.18c0.48,-9.85 0.07,-20.56 0.07,-30.34 0,-9.81 1.18,-19.6 -4.45,-25.8 -11.18,-12.3 -30.36,-10.29 -47.5,-5.67zm39.8 46.39l0.01 -12.17c-5.56,-2.6 -37.46,-7.69 -33.12,11.64 1.48,6.58 8.16,9.4 16.31,8.47 6.83,-0.77 13.3,-4.59 16.8,-7.94z"/>
   <path class="fil0" d="M933.27 779.31l13.83 0c3.33,-1.82 14.67,-3 16,-11.6 1.69,-10.96 -10.9,-11.77 -12.86,-12.83 -1.66,-0.91 -0.1,0.4 -1.42,-1.07l2.15 -5.51c7.93,-0.27 11.8,-1.45 18.24,-3.46l-0.03 -8.91c-9.54,2.48 -19.09,4.89 -29.3,1.49 -20.86,-6.94 -18.58,-36.35 -3.71,-44.04 10.41,-5.39 19.37,-2.15 29.85,0.22l-0.05 -8.57c-9.71,-6.72 -43.32,-7.12 -51.62,17.06 -5.21,15.2 -1.57,32.27 11.87,40.84 4.2,2.68 11.31,3.61 13.63,5.18l-4.27 12.88c4.72,0.29 18.5,0.71 14.39,7.17 -3.16,4.96 -14.52,3.04 -20.34,2.26 0,10.19 -0.49,6.69 3.64,8.89z"/>
   <path class="fil0" d="M633.41 691.38l-2 -8.57 -9.35 0.03 0 63.66 11.81 0.09c0.76,-11.34 0.13,-24.96 0.11,-36.46 -0.02,-9.05 -0.36,-9.08 4.92,-13.55 3.08,-2.61 7.8,-5.17 12.99,-5.98 14.46,-2.28 17.82,5.56 17.8,18.16 -0.03,12.61 -0.01,25.23 -0.01,37.85l12.14 0c0,-10.35 0,-20.71 0,-31.06 0,-9.96 1.11,-20.04 -4.61,-26.8 -4.85,-5.73 -12.18,-8.18 -22.64,-7.43 -10.93,0.78 -15.1,5.44 -21.16,10.06z"/>
   <path class="fil0" d="M854.42 682.98l-11.92 -0.17c0,10.84 -1.29,38.19 0.64,46.87 5.7,25.68 52.77,24.68 58.35,0.27 1.09,-4.81 1.38,-41.73 0.47,-46.95l-11.57 -0.21c-4.35,21.76 9.97,56.06 -17.51,56.49 -13.05,0.19 -18.31,-6.35 -18.47,-18.97 -0.15,-12.4 0.01,-24.92 0.01,-37.33z"/>
   <path class="fil0" d="M692.44 735.79l0.01 9.05c12.35,3.63 27.07,5.85 39.22,-0.26 14.65,-7.38 12.42,-24.16 4.22,-29.74 -9.14,-6.22 -31.14,-4.15 -30.46,-15.51 0.89,-14.96 28.05,-6.94 33.69,-5.63 0.2,-9.6 2.04,-9.07 -8.09,-11.27 -3.27,-0.71 -6.69,-1.14 -10.1,-1.19 -32.93,-0.52 -33.95,26.31 -19.47,33.45 7.48,3.69 33.78,3.72 27.4,17.58 -2.35,5.08 -9.27,6.68 -16.03,6.98 -8.57,0.38 -13.1,-1.66 -20.39,-3.46z"/>
   <path class="fil0" d="M755.76 682.78l-14.01 0 0.08 9.04 13.99 0.23c0.01,8.75 -1.05,39.36 1.04,45.22 4.55,12.78 25.07,12.55 33.81,9.41l-0.01 -8.6c-11.17,0.44 -22.39,3.65 -22.9,-10.29 -0.32,-8.8 -0.84,-27.62 0.21,-35.75l21.5 -0.01 -0.02 -9.25 -21.49 0 -0.26 -17.28 -11.8 0.06 -0.14 17.22z"/>
   <path class="fil0" d="M536.47 744.85l-0.03 -8.92c-9.58,2.47 -18.28,4.97 -28.5,1.34 -18.23,-6.47 -18.4,-36.27 -2.05,-44.13 10.57,-5.09 18.88,-1.84 29.42,0.46l-0.05 -8.57c-9.4,-6.83 -53.85,-8.82 -53.83,30.53 0.02,29.91 27.72,37.65 55.04,29.29z"/>
   <path class="fil0" d="M810.48 692.28c-1.55,-2.58 -0.9,-7.64 -3.4,-9.5l-8.53 0 0 63.83 12.14 0c0.01,-13.67 -0.54,-28.41 -0.04,-41.94 0.41,-10.93 19.87,-12.34 27.86,-13.32l0.13 -9.94c-7.99,-0.93 -17.03,1.48 -23.01,6.07 -2.22,1.7 -2.85,3.19 -5.15,4.8z"/>
   <path class="fil0" d="M978.97 669.93l8.54 0.46c2.74,-2.14 -0.37,-2.77 3.38,-5.21 4.85,-2.23 14.21,5.33 21.7,5.67 10.14,0.46 14.03,-4.55 14.13,-14.16l-9.59 -0.18c-0.96,12.07 -11.5,2.11 -20.77,-0.06 -11.24,-2.65 -17.36,2.85 -17.39,13.48z"/>
  </g>
 </g>
</svg>
