<?xml version="1.0" encoding="UTF-8"?>
<!DOCTYPE svg PUBLIC "-//W3C//DTD SVG 1.1//EN" "http://www.w3.org/Graphics/SVG/1.1/DTD/svg11.dtd">
<!-- Creator: CorelDRAW 2021 (64 Bit) -->
<svg xmlns="http://www.w3.org/2000/svg" xml:space="preserve" width="1362px" height="1000px" version="1.1" style="shape-rendering:geometricPrecision; text-rendering:geometricPrecision; image-rendering:optimizeQuality; fill-rule:evenodd; clip-rule:evenodd"
viewBox="0 0 1362 999.85"
 xmlns:xlink="http://www.w3.org/1999/xlink"
 xmlns:xodm="http://www.corel.com/coreldraw/odm/2003">
 <defs>
  <style type="text/css">
   <![CDATA[
    .fil0 {fill:#071F67;fill-rule:nonzero}
   ]]>
  </style>
 </defs>
 <g id="Camada_x0020_1">
  <metadata id="CorelCorpID_0Corel-Layer"/>
  <g id="_1669977637280">
   <path class="fil0" d="M558.18 159.85l-47.08 6.17 7.04 52.72 -5.7 1.34c-8.23,1.93 -16.24,4.23 -24.02,6.83 -7.85,2.62 -15.57,5.58 -23.15,8.79l-5.33 2.27 -25.98 -46.35 -41.49 23.2 25.99 46.52 -4.74 3.35c-7.26,5.12 -14.27,10.57 -20.99,16.3 -6.8,5.8 -13.32,11.89 -19.51,18.22l-4.08 4.17 -41.78 -33.17 -29.48 37.25 41.79 33.03 -3.1 4.9c-5.16,8.14 -9.92,16.47 -14.21,24.96 -4.25,8.41 -8.06,16.95 -11.39,25.6l-2.09 5.45 -51.28 -14.07 -12.57 45.83 51.42 14.08 -0.96 5.73c-1.26,7.6 -2.22,15.34 -2.86,23.2 -0.64,7.78 -0.96,15.68 -0.96,23.68l0 9.38 -52.92 6.17 5.49 47.17 52.82 -6.17 1.26 5.7c1.8,8.1 4,16.23 6.57,24.36 2.57,8.1 5.46,16 8.65,23.66l2.23 5.35 -46.82 25.43 22.64 41.84 46.81 -25.41 3.28 4.8c5.06,7.41 10.41,14.51 16.03,21.27 5.63,6.77 11.72,13.43 18.22,19.93l4.11 4.11 -33.61 41.36 36.92 29.94 33.6 -41.34 4.85 3.16c8.09,5.28 16.52,10.22 25.31,14.78 8.72,4.53 17.67,8.62 26.84,12.22l5.42 2.12 -14.21 51.26 45.83 12.69 14.23 -51.29 5.73 0.99c7.78,1.35 15.69,2.34 23.72,2.99 8,0.66 16.15,0.98 24.45,0.98l5.81 0 5.46 52.99 47.32 -4.91 -5.46 -52.85 5.73 -1.18c8.87,-1.83 17.64,-4.1 26.27,-6.77 8.63,-2.67 17.16,-5.78 25.57,-9.3l5.35 -2.24 25.42 46.83 41.85 -22.64 -25.4 -46.77 4.76 -3.29c7.33,-5.05 14.37,-10.38 21.11,-15.98l0 -0.02c6.93,-5.75 13.56,-11.76 19.88,-18.01l4.09 -4.05 41.33 33.57 29.94 -36.91 -41.36 -33.61 3.18 -4.87c2.54,-3.88 4.9,-7.64 7.05,-11.23l1.2 -2.04 -44.96 0c-22.71,32.07 -52.78,58.51 -87.74,76.9 -34.72,18.27 -74.25,28.6 -116.11,28.6 -68.98,0 -131.43,-27.96 -176.64,-73.17 -45.21,-45.21 -73.18,-107.67 -73.18,-176.64 0,-68.98 27.97,-131.43 73.18,-176.64 45.21,-45.21 107.66,-73.18 176.64,-73.18 56.5,0 108.66,18.8 150.53,50.46 41.58,31.44 73.01,75.59 88.49,126.64l39.26 0c-1.6,-6.17 -3.43,-12.27 -5.45,-18.3 -2.98,-8.91 -6.37,-17.58 -10.09,-25.95l-2.36 -5.32 46.07 -26.4 -23.66 -41.26 -46.22 26.55 -3.39 -4.71c-5.02,-6.98 -10.46,-13.82 -16.29,-20.52 -5.8,-6.66 -11.84,-12.99 -18.09,-18.96l-4.23 -4.04 32.74 -42.07 -37.46 -29.11 -32.73 42.06 -4.93 -3.08c-7.58,-4.73 -15.37,-9.15 -23.35,-13.17 -7.73,-3.9 -15.63,-7.45 -23.66,-10.56l-5.44 -2.11 14.22 -51.29 -45.84 -12.8 -14.22 51.26 -5.74 -0.98c-7.77,-1.33 -15.68,-2.32 -23.69,-2.97 -8.13,-0.67 -16.39,-1 -24.76,-1 -2.84,0 -5.68,0.01 -7.96,0.12l-5.92 0.32 -7.06 -52.85zm-55.15 -5.77l66.22 -8.68 7.2 53.94 2.67 0c8.63,0 17.23,0.34 25.77,1.04 6.41,0.53 12.78,1.26 19.1,2.2l14.57 -52.52 70.67 19.74 -14.56 52.5c6.6,2.73 13.07,5.71 19.39,8.89 6.63,3.35 13.1,6.93 19.39,10.69l33.55 -43.11 57.85 44.98 -33.55 43.11c5.15,5.11 10.07,10.36 14.75,15.74 4.66,5.35 9.18,10.95 13.55,16.79l47.39 -27.23 36.49 63.64 -47.25 27.08c3.03,7.15 5.78,14.4 8.24,21.72 3,8.97 5.6,18.13 7.72,27.44l1.8 7.88 -65.27 0 -1.33 -4.72c-14.16,-50.29 -44.58,-93.81 -85.23,-124.55 -39.69,-30.01 -89.14,-47.83 -142.75,-47.83 -65.41,0 -124.63,26.52 -167.5,69.39 -42.87,42.87 -69.39,102.09 -69.39,167.5 0,65.41 26.52,124.63 69.39,167.5 42.86,42.87 102.09,69.38 167.5,69.38 39.74,0 77.22,-9.78 110.1,-27.08 34.13,-17.95 63.35,-43.99 85.08,-75.59l1.92 -2.78 73.35 0 -4.98 9.45c-2.12,4.03 -4.4,8.06 -6.81,12.09 -1.39,2.34 -2.78,4.6 -4.15,6.79l42.35 34.41 -46.18 56.94 -42.4 -34.45c-5.38,5.14 -10.9,10.06 -16.55,14.75l-0.01 -0.02c-5.62,4.67 -11.38,9.12 -17.27,13.35l26.06 47.99 -64.5 34.9 -26.03 -47.95c-6.97,2.76 -14.09,5.26 -21.35,7.51 -7.14,2.21 -14.4,4.16 -21.77,5.83l5.59 54.14 -72.98 7.58 -5.58 -54.28c-6.59,-0.11 -13.14,-0.44 -19.64,-0.97 -6.43,-0.52 -12.81,-1.26 -19.13,-2.21l-14.56 52.5 -70.68 -19.57 14.57 -52.52c-7.79,-3.24 -15.36,-6.78 -22.71,-10.6 -7.28,-3.78 -14.44,-7.89 -21.49,-12.31l-34.43 42.37 -56.93 -46.18 34.42 -42.36c-5.09,-5.3 -10.07,-10.86 -14.91,-16.69 -4.73,-5.7 -9.22,-11.52 -13.46,-17.45l-47.97 26.04 -34.89 -64.5 47.95 -26.04c-2.51,-6.36 -4.8,-12.81 -6.87,-19.33 -2.02,-6.4 -3.86,-13 -5.5,-19.78l-54.16 6.33 -8.47 -72.83 54.31 -6.33c0.05,-7.56 0.39,-15.08 1,-22.58 0.51,-6.2 1.21,-12.39 2.12,-18.56l-52.66 -14.42 19.39 -70.68 52.51 14.42c2.98,-7.33 6.24,-14.46 9.74,-21.38 3.66,-7.25 7.59,-14.3 11.75,-21.14l-42.8 -33.83 45.48 -57.48 42.82 33.99c5.23,-5.15 10.65,-10.12 16.24,-14.89 5.6,-4.77 11.36,-9.33 17.24,-13.66l-26.64 -47.67 63.99 -35.78 26.64 47.54c6.13,-2.48 12.38,-4.8 18.76,-6.93 6.44,-2.15 12.95,-4.09 19.5,-5.78l-7.21 -53.99 6.41 -0.84z"/>
   <path id="path3030" class="fil0" d="M971.96 368.02l-29.38 204.14 -103.95 0 5.61 -19.56 73.69 0 11.17 -96.02 -129.58 0 -20.53 158.03 305.36 0 7 -43.38 -93.76 0 26.09 -203.21 -51.72 0zm-530.39 10.44l-28.35 237.7 49.76 0.3 14.2 -101.22 56.35 -34.58 -11.53 134.83 55.32 0 8.34 -96.28 64.63 -44.83 -10.91 139.77 118 0 22.07 -157.88 -80.74 0 10.91 -77.81 -116.35 71.53 5 -70.86 -114.76 76.78 7.92 -77.45 -49.86 0zm406.07 113.73l28.35 0 -5.2 21.77 -28.35 0 5.2 -21.77zm-145.89 4.73l27.53 0 -10.45 82.29 -27.53 0 10.45 -82.29z"/>
   <polygon id="rect3038" class="fil0" points="448.31,323.97 500.39,323.97 495.19,360.4 443.11,360.4 "/>
   <path id="path3018" class="fil0" d="M1137.56 408.21c0,6.22 -1.13,11.99 -3.45,17.44 -2.31,5.41 -5.45,10.09 -9.47,14.1 -4.01,3.97 -8.74,7.1 -14.2,9.42 -5.45,2.32 -11.27,3.45 -17.49,3.45 -6.44,0 -12.36,-1.13 -17.76,-3.35 -5.4,-2.21 -10.09,-5.3 -13.94,-9.21 -3.92,-3.91 -6.95,-8.54 -9.16,-13.89 -2.22,-5.35 -3.3,-11.27 -3.3,-17.7 0,-6.23 1.13,-12 3.45,-17.35 2.32,-5.35 5.46,-10.03 9.47,-13.99 4.01,-3.97 8.7,-7.1 14.15,-9.37 5.4,-2.26 11.27,-3.39 17.55,-3.39 6.43,0 12.35,1.08 17.75,3.29 5.4,2.21 10.09,5.25 13.95,9.16 3.91,3.91 6.94,8.54 9.16,13.89 2.16,5.3 3.29,11.17 3.29,17.5zm-10.24 0.72c0,-5.35 -0.88,-10.24 -2.57,-14.67 -1.7,-4.37 -4.07,-8.13 -7.11,-11.27 -3.03,-3.14 -6.63,-5.56 -10.8,-7.2 -4.17,-1.65 -8.65,-2.52 -13.48,-2.52 -5.2,0 -9.94,0.92 -14.16,2.72 -4.21,1.8 -7.82,4.33 -10.85,7.52 -3.04,3.19 -5.35,6.84 -7,11.06 -1.65,4.22 -2.42,8.7 -2.42,13.43 0,5.3 0.87,10.14 2.57,14.51 1.7,4.38 4.07,8.13 7.1,11.27 3.04,3.14 6.64,5.56 10.81,7.26 4.17,1.7 8.65,2.57 13.48,2.57 5.2,0 9.93,-0.92 14.21,-2.78 4.22,-1.85 7.87,-4.37 10.85,-7.51 2.99,-3.14 5.3,-6.79 6.95,-11.01 1.6,-4.17 2.42,-8.65 2.42,-13.38l0 0zm-13.38 20.74c0,0.31 -0.05,0.56 -0.15,0.87 -0.11,0.26 -0.42,0.46 -0.88,0.57 -0.46,0.1 -1.08,0.2 -1.9,0.31 -0.83,0.05 -1.96,0.1 -3.4,0.1 -1.28,0 -2.31,-0.05 -3.14,-0.1 -0.77,-0.06 -1.44,-0.21 -1.9,-0.42 -0.52,-0.2 -0.88,-0.46 -1.13,-0.77 -0.26,-0.36 -0.47,-0.82 -0.62,-1.44l-2.37 -7.82c-0.93,-2.78 -2.01,-4.74 -3.24,-5.87 -1.24,-1.08 -3.14,-1.64 -5.61,-1.64l-3.09 0 0 15.9c0,0.82 -0.31,1.39 -0.98,1.7 -0.66,0.3 -2.16,0.46 -4.47,0.46 -2.37,0 -3.91,-0.16 -4.63,-0.46 -0.78,-0.31 -1.14,-0.88 -1.14,-1.7l0 -40.76c0,-1.64 0.42,-2.98 1.24,-3.91 0.82,-0.93 2.06,-1.44 3.76,-1.44l13.07 0c3.03,0 5.71,0.26 8.02,0.77 2.32,0.52 4.28,1.34 5.92,2.52 1.65,1.14 2.88,2.58 3.71,4.27 0.82,1.7 1.23,3.71 1.23,6.08 0,3.65 -0.98,6.43 -2.93,8.44 -1.96,2 -4.63,3.44 -7.93,4.27 1.8,0.61 3.5,1.64 5.1,3.08 1.59,1.45 2.93,3.61 4.06,6.49l2.73 7.25c0.41,1.7 0.67,2.78 0.67,3.25l0 0zm-14.1 -31.44c0,-0.83 -0.1,-1.65 -0.36,-2.37 -0.21,-0.77 -0.67,-1.44 -1.29,-2.01 -0.67,-0.57 -1.49,-0.98 -2.57,-1.29 -1.08,-0.3 -2.37,-0.46 -3.96,-0.46l-5.2 0 0 12.71 4.99 0c3.19,0 5.35,-0.62 6.59,-1.8 1.23,-1.23 1.8,-2.83 1.8,-4.78l0 0z"/>
  </g>
 </g>
</svg>
