<svg width="160" height="76" viewBox="0 0 160 76" fill="none" xmlns="http://www.w3.org/2000/svg">
<path fill-rule="evenodd" clip-rule="evenodd" d="M148.848 46.2616H110.081C107.391 46.2616 104.707 45.9076 102.146 45.0693C99.8158 44.3062 97.6097 43.2123 95.6995 41.6658C93.733 40.2003 92.1928 38.3442 91.0942 36.1505L91.0731 36.1083L91.0531 36.0655C90.0171 33.824 89.5222 31.4321 89.5222 28.9635C89.5222 26.4288 90.0775 23.9966 91.1785 21.7128L91.1987 21.6709L91.2203 21.6294C92.3136 19.5303 93.7864 17.6983 95.5801 16.1517L95.6355 16.1039L95.6932 16.0588C97.612 14.5594 99.7625 13.4161 102.047 12.5798L102.103 12.5592L102.16 12.541C104.728 11.7136 107.4 11.3396 110.096 11.353L148.636 11.5464L148.828 1.88232H110.081C105.523 1.88232 100.957 2.43313 96.6057 3.82227C92.8121 5.03295 89.2663 6.82935 86.1635 9.33484C83.3313 11.6222 81.055 14.3608 79.4189 17.6125C77.759 20.9117 77.0114 24.4417 77.0114 28.1302C77.0114 31.8983 77.7778 35.4999 79.4341 38.8869C81.0838 42.2604 83.3347 45.1677 86.2117 47.59C89.3033 50.193 92.8707 52.0751 96.6799 53.4007C100.992 54.901 105.526 55.5239 110.081 55.5239H148.721L148.848 46.2616ZM9.87444 59.1759H151.337C154.146 59.1759 156.445 61.3086 156.445 63.9148V69.6691C156.445 72.2755 154.146 74.4081 151.337 74.4081H9.87444C7.0649 74.4081 4.76589 72.2755 4.76589 69.6691V63.9148C4.76589 61.3086 7.0649 59.1759 9.87444 59.1759ZM142.301 67.442L140.882 63.6885L139.483 67.442H142.301ZM97.8007 66.7497C97.8007 67.8021 98.1264 68.7214 98.8599 69.4831C99.5719 70.2224 100.439 70.5781 101.465 70.5781C102.478 70.5781 103.321 70.2085 104.014 69.4718C104.739 68.701 105.062 67.777 105.062 66.7227C105.062 65.7041 104.698 64.8406 103.984 64.1139C103.271 63.3875 102.417 63.0193 101.398 63.0193C100.993 63.0193 100.597 63.0893 100.217 63.2286C99.8311 63.3703 99.4806 63.5805 99.1659 63.8451C98.735 64.2084 98.4035 64.6513 98.1645 65.1613C97.929 65.6638 97.8007 66.1942 97.8007 66.7497ZM70.8533 66.7497C70.8533 67.8021 71.179 68.7214 71.9123 69.4831C72.6243 70.2224 73.4914 70.5781 74.5173 70.5781C75.5299 70.5781 76.3736 70.2085 77.0665 69.4718C77.7919 68.701 78.1144 67.777 78.1144 66.7227C78.1144 65.7041 77.7504 64.8406 77.0368 64.1139C76.3239 63.3875 75.4697 63.0193 74.4503 63.0193C74.0453 63.0193 73.6499 63.0893 73.2698 63.2286C72.8835 63.3703 72.533 63.5805 72.2185 63.8451C71.7877 64.2084 71.4559 64.6513 71.2172 65.1613C70.9817 65.6638 70.8533 66.1942 70.8533 66.7497ZM142.833 68.8353H138.955L137.814 71.8237H136.247L140.159 61.7603H141.654L145.552 71.8237H143.974L142.833 68.8353ZM130.689 71.8237H129.213V61.7603H130.689V71.8237ZM121.059 68.0983H116.326V66.7187H122.81L122.794 67.0014C122.715 68.3965 122.22 69.6214 121.212 70.5979C120.22 71.5582 119.01 72.0113 117.632 72.0113C116.205 72.0113 114.976 71.5169 113.983 70.4913C112.975 69.4502 112.514 68.177 112.514 66.7339C112.514 66.0406 112.645 65.3697 112.916 64.7313C113.188 64.0866 113.59 63.5206 114.088 63.0302C114.567 62.5583 115.116 62.1791 115.743 61.9313C116.384 61.6778 117.063 61.5728 117.75 61.5728C118.691 61.5728 119.577 61.7954 120.381 62.2841C121.191 62.7762 121.805 63.468 122.252 64.3003L122.464 64.6946H120.731L120.651 64.5921C120.278 64.1179 119.828 63.6816 119.291 63.3968C118.794 63.1329 118.256 63.0193 117.694 63.0193C116.673 63.0193 115.814 63.3798 115.104 64.1127C114.391 64.849 114.043 65.7259 114.043 66.7497C114.043 67.8026 114.366 68.7289 115.102 69.4892C115.815 70.2255 116.683 70.5781 117.708 70.5781C118.53 70.5781 119.251 70.3131 119.89 69.7976C120.457 69.3403 120.84 68.7722 121.059 68.0983ZM96.2848 66.7339C96.2848 66.0402 96.4167 65.3692 96.6884 64.7307C96.9625 64.0869 97.3592 63.5197 97.8593 63.0297C98.3324 62.566 98.8742 62.1918 99.4881 61.9392C100.103 61.6861 100.752 61.5728 101.416 61.5728C102.089 61.5728 102.75 61.6877 103.374 61.9435C103.996 62.1977 104.545 62.5741 105.023 63.0431C105.517 63.527 105.912 64.0869 106.177 64.7263C106.443 65.3667 106.565 66.042 106.565 66.7339C106.565 67.4005 106.464 68.0604 106.233 68.6872C106.009 69.2924 105.672 69.8375 105.238 70.3153C104.747 70.855 104.17 71.2866 103.502 71.5818C102.836 71.8757 102.129 72.0113 101.402 72.0113C99.9753 72.0113 98.7487 71.5129 97.7557 70.4868C96.7483 69.4455 96.2848 68.1733 96.2848 66.7339ZM87.5257 70.3636H90.8808V71.8237H86.0498V61.7603H87.5257V70.3636ZM69.3369 66.7339C69.3369 66.0402 69.4694 65.3692 69.7412 64.7307C70.0149 64.0869 70.4114 63.5197 70.9117 63.0297C71.385 62.566 71.9266 62.1918 72.5405 61.9392C73.1551 61.6861 73.8048 61.5728 74.4682 61.5728C75.1418 61.5728 75.8018 61.6877 76.4265 61.9435C77.0479 62.1977 77.5975 62.5741 78.076 63.0431C78.57 63.527 78.9649 64.0869 79.2297 64.7263C79.4948 65.3667 79.6172 66.042 79.6172 66.7339C79.6172 67.4005 79.517 68.0604 79.2849 68.6872C79.061 69.2924 78.7246 69.8375 78.2904 70.3153C77.7996 70.855 77.2226 71.2866 76.554 71.5818C75.8888 71.8757 75.1811 72.0113 74.4546 72.0113C73.0279 72.0113 71.8013 71.5129 70.8084 70.4868C69.8007 69.4455 69.3369 68.1733 69.3369 66.7339ZM61.5261 69.4611L61.4275 61.7603H62.8932V71.8237H61.3487L56.5438 64.1107L56.6423 71.8237H55.1768V61.7603H56.7212L61.5261 69.4611ZM47.1059 64.6499C46.7487 64.1531 46.3083 63.7098 45.7623 63.4218C45.2395 63.1458 44.6665 63.0329 44.0781 63.0329C43.0759 63.0329 42.2417 63.4077 41.5497 64.1297C40.8457 64.8635 40.4923 65.7304 40.4923 66.7472C40.4923 67.7955 40.8196 68.7126 41.544 69.4754C42.236 70.2047 43.0704 70.5781 44.0781 70.5781C44.6606 70.5781 45.2252 70.4636 45.7442 70.1947C46.2701 69.9224 46.6948 69.5196 47.0389 69.0414L47.1193 68.9298H48.8192L48.6068 69.3242C48.1644 70.1462 47.5544 70.8253 46.7537 71.3095C45.9563 71.7911 45.0765 72.0113 44.1453 72.0113C42.7059 72.0113 41.4543 71.5283 40.4444 70.4995C39.4247 69.4604 38.963 68.1826 38.963 66.7339C38.963 66.0406 39.0942 65.3697 39.364 64.7313C39.6368 64.0871 40.0395 63.522 40.5364 63.0306C41.0049 62.5673 41.5429 62.1955 42.1527 61.9435C42.7718 61.6884 43.4254 61.5728 44.0938 61.5728C45.0588 61.5728 45.9681 61.8016 46.7925 62.3045C47.6187 62.8079 48.2423 63.5143 48.6888 64.3701L48.8935 64.7617H47.1863L47.1059 64.6499ZM28.5195 66.035H32.5324V67.5087H28.5195V70.3636H32.5324V71.8237H27.0437V61.7603H32.5324V63.234H28.5195V66.035ZM17.565 63.234H15.6591V61.7603H20.9464V63.234H19.0407V71.8237H17.565V63.234ZM42.3575 24.2802V31.5631H62.1815V46.2616H36.5102C33.7897 46.2616 31.0624 45.9174 28.4711 45.0693C26.1405 44.3062 23.9344 43.2123 22.0242 41.6656C20.0577 40.1996 18.5379 38.3311 17.5023 36.1083C16.389 33.8689 15.8471 31.4656 15.8471 28.9635C15.8471 26.439 16.3847 24.0065 17.5341 21.7555C18.6315 19.606 20.1776 17.7708 22.0344 16.2341C23.9383 14.5987 26.1448 13.4057 28.5063 12.5689L28.5476 12.5544L28.5894 12.541C31.158 11.7136 33.8295 11.3394 36.5257 11.353L74.2545 11.5458L74.1907 1.88232H36.5102C31.9535 1.88232 27.3862 2.43041 23.0362 3.82159C19.2589 5.02977 15.7345 6.82641 12.6513 9.32985C9.8297 11.6208 7.56499 14.3574 5.93754 17.6071C4.28306 20.9115 3.54474 24.4456 3.54474 28.1302C3.54474 31.8953 4.3035 35.5036 5.95275 38.8921C7.59383 42.2638 9.83333 45.1693 12.699 47.5952C15.7715 50.1959 19.3175 52.0785 23.1109 53.4012C27.4205 54.9039 31.956 55.5239 36.5102 55.5239H74.4836V24.2802H42.3575Z" fill="#D2D8E9"/>
</svg>
