<svg width="122" height="59" viewBox="0 0 122 59" fill="none" xmlns="http://www.w3.org/2000/svg">
<path fill-rule="evenodd" clip-rule="evenodd" d="M113.496 35.3283H83.9369C81.8855 35.3283 79.8395 35.0579 77.8867 34.4177C76.1096 33.835 74.4274 32.9996 72.9709 31.8186C71.4714 30.6994 70.297 29.2821 69.4594 27.6068L69.4433 27.5746L69.4281 27.5419C68.6381 25.8301 68.2607 24.0035 68.2607 22.1184C68.2607 20.1827 68.6841 18.3253 69.5236 16.5813L69.539 16.5493L69.5555 16.5176C70.3891 14.9146 71.5121 13.5155 72.8798 12.3345L72.9221 12.298L72.9661 12.2635C74.4292 11.1185 76.0689 10.2454 77.811 9.60675L77.8538 9.59099L77.8971 9.57714C79.8554 8.94525 81.8926 8.65969 83.9485 8.66991L113.335 8.81762L113.482 1.4375H83.9369C80.4615 1.4375 76.9798 1.85813 73.6619 2.91896C70.7692 3.84351 68.0656 5.21536 65.6997 7.1287C63.5401 8.87546 61.8045 10.9668 60.5569 13.4501C59.2913 15.9695 58.7212 18.6652 58.7212 21.482C58.7212 24.3595 59.3056 27.11 60.5685 29.6964C61.8264 32.2727 63.5427 34.4929 65.7364 36.3427C68.0938 38.3305 70.8139 39.7678 73.7185 40.7801C77.0061 41.9258 80.4633 42.4015 83.9369 42.4015H113.4L113.496 35.3283ZM7.52928 45.1904H115.394C117.537 45.1904 119.29 46.8191 119.29 48.8093V53.2036C119.29 55.194 117.537 56.8227 115.394 56.8227H7.52928C5.387 56.8227 3.63401 55.194 3.63401 53.2036V48.8093C3.63401 46.8191 5.387 45.1904 7.52928 45.1904ZM108.505 51.5029L107.422 48.6365L106.355 51.5029H108.505ZM74.5731 50.9743C74.5731 51.7779 74.8214 52.48 75.3807 53.0616C75.9236 53.6262 76.5846 53.8979 77.367 53.8979C78.1392 53.8979 78.7823 53.6156 79.3108 53.053C79.8637 52.4644 80.1098 51.7587 80.1098 50.9537C80.1098 50.1758 79.832 49.5163 79.2881 48.9613C78.7444 48.4067 78.0933 48.1255 77.3157 48.1255C77.007 48.1255 76.7055 48.179 76.4158 48.2853C76.1212 48.3935 75.854 48.554 75.614 48.7561C75.2855 49.0335 75.0327 49.3717 74.8505 49.7612C74.6709 50.1449 74.5731 50.55 74.5731 50.9743ZM54.0257 50.9743C54.0257 51.7779 54.274 52.48 54.8332 53.0616C55.3761 53.6262 56.0372 53.8979 56.8194 53.8979C57.5916 53.8979 58.2349 53.6156 58.7633 53.053C59.3164 52.4644 59.5623 51.7587 59.5623 50.9537C59.5623 50.1758 59.2847 49.5163 58.7406 48.9613C58.197 48.4067 57.5457 48.1255 56.7684 48.1255C56.4596 48.1255 56.1581 48.179 55.8682 48.2853C55.5737 48.3935 55.3065 48.554 55.0666 48.7561C54.7381 49.0335 54.4851 49.3717 54.3031 49.7612C54.1235 50.1449 54.0257 50.55 54.0257 50.9743ZM108.91 52.5669H105.953L105.083 54.8491H103.888L106.871 47.164H108.011L110.983 54.8491H109.78L108.91 52.5669ZM99.6506 54.8491H98.5251V47.164H99.6506V54.8491ZM92.3077 52.0041H88.6983V50.9505H93.6423L93.6302 51.1665C93.5701 52.2318 93.1931 53.1673 92.4239 53.9129C91.6675 54.6463 90.7455 54.9923 89.6942 54.9923C88.6065 54.9923 87.6692 54.6148 86.9121 53.8316C86.1437 53.0365 85.792 52.0642 85.792 50.9621C85.792 50.4328 85.8921 49.9203 86.0982 49.4329C86.306 48.9406 86.6123 48.5083 86.9922 48.1338C87.3576 47.7734 87.7764 47.4839 88.2543 47.2946C88.7426 47.101 89.2609 47.0208 89.7846 47.0208C90.5019 47.0208 91.1776 47.1909 91.7908 47.564C92.4085 47.9398 92.8764 48.4682 93.2175 49.1037L93.3789 49.4048H92.0576L91.9961 49.3266C91.712 48.9645 91.3686 48.6313 90.9592 48.4138C90.5803 48.2122 90.1699 48.1255 89.742 48.1255C88.9634 48.1255 88.3085 48.4008 87.767 48.9605C87.2234 49.5228 86.9581 50.1924 86.9581 50.9743C86.9581 51.7783 87.2039 52.4857 87.7654 53.0663C88.3092 53.6286 88.971 53.8979 89.7522 53.8979C90.3791 53.8979 90.9291 53.6954 91.4164 53.3018C91.8483 52.9525 92.1407 52.5187 92.3077 52.0041ZM73.4172 50.9621C73.4172 50.4324 73.5178 49.92 73.7249 49.4324C73.9339 48.9407 74.2364 48.5076 74.6178 48.1334C74.9785 47.7793 75.3916 47.4936 75.8597 47.3006C76.3283 47.1074 76.8238 47.0208 77.3294 47.0208C77.843 47.0208 78.3466 47.1086 78.8226 47.3039C79.2966 47.4981 79.7155 47.7855 80.0804 48.1436C80.457 48.5132 80.7582 48.9407 80.9602 49.4291C81.1625 49.9181 81.2555 50.4338 81.2555 50.9621C81.2555 51.4712 81.1791 51.9752 81.0023 52.4538C80.8316 52.916 80.5751 53.3323 80.2438 53.6972C79.8698 54.1093 79.4298 54.4389 78.92 54.6643C78.4126 54.8887 77.8732 54.9923 77.3194 54.9923C76.2312 54.9923 75.2959 54.6117 74.5388 53.8281C73.7706 53.0329 73.4172 52.0614 73.4172 50.9621ZM66.7384 53.7341H69.2966V54.8491H65.613V47.164H66.7384V53.7341ZM52.8694 50.9621C52.8694 50.4324 52.9704 49.92 53.1777 49.4324C53.3864 48.9407 53.6887 48.5076 54.0702 48.1334C54.4311 47.7793 54.8441 47.4936 55.3122 47.3006C55.7808 47.1074 56.2762 47.0208 56.782 47.0208C57.2957 47.0208 57.7989 47.1086 58.2753 47.3039C58.7491 47.4981 59.1681 47.7855 59.533 48.1436C59.9096 48.5132 60.2108 48.9407 60.4127 49.4291C60.6148 49.9181 60.7081 50.4338 60.7081 50.9621C60.7081 51.4712 60.6318 51.9752 60.4548 52.4538C60.284 52.916 60.0276 53.3323 59.6965 53.6972C59.3222 54.1093 58.8822 54.4389 58.3724 54.6643C57.8652 54.8887 57.3256 54.9923 56.7716 54.9923C55.6838 54.9923 54.7485 54.6117 53.9914 53.8281C53.2231 53.0329 52.8694 52.0614 52.8694 50.9621ZM46.9136 53.0448L46.8385 47.164H47.9561V54.8491H46.7784L43.1147 48.9589L43.1898 54.8491H42.0724V47.164H43.2499L46.9136 53.0448ZM35.9183 49.3707C35.6459 48.9913 35.3101 48.6527 34.8938 48.4328C34.4952 48.2221 34.0583 48.1358 33.6096 48.1358C32.8454 48.1358 32.2093 48.4221 31.6817 48.9735C31.1449 49.5338 30.8754 50.1959 30.8754 50.9723C30.8754 51.7729 31.125 52.4732 31.6774 53.0557C32.205 53.6127 32.8412 53.8979 33.6096 53.8979C34.0538 53.8979 34.4843 53.8104 34.88 53.605C35.281 53.3971 35.6048 53.0895 35.8672 52.7243L35.9285 52.6391H37.2247L37.0627 52.9402C36.7254 53.568 36.2603 54.0866 35.6497 54.4563C35.0417 54.8242 34.3708 54.9923 33.6608 54.9923C32.5633 54.9923 31.609 54.6234 30.8389 53.8378C30.0613 53.0443 29.7093 52.0685 29.7093 50.9621C29.7093 50.4328 29.8094 49.9203 30.0151 49.4329C30.2231 48.9409 30.5301 48.5094 30.909 48.1341C31.2663 47.7803 31.6765 47.4963 32.1415 47.3039C32.6135 47.1091 33.1119 47.0208 33.6215 47.0208C34.3573 47.0208 35.0507 47.1955 35.6793 47.5796C36.3093 47.9641 36.7848 48.5035 37.1253 49.157L37.2813 49.4561H35.9796L35.9183 49.3707ZM21.7461 50.4284H24.806V51.5539H21.7461V53.7341H24.806V54.8491H20.6209V47.164H24.806V48.2894H21.7461V50.4284ZM13.3933 48.2894H11.9401V47.164H15.9716V48.2894H14.5186V54.8491H13.3933V48.2894ZM32.2977 18.5419V24.1036H47.4134V35.3283H27.8391C25.7647 35.3283 23.6851 35.0654 21.7092 34.4177C19.9322 33.835 18.25 32.9996 16.7935 31.8185C15.294 30.6989 14.1352 29.272 13.3455 27.5746C12.4966 25.8644 12.0835 24.0291 12.0835 22.1184C12.0835 20.1905 12.4933 18.3329 13.3698 16.6139C14.2065 14.9724 15.3854 13.5709 16.8013 12.3974C18.2529 11.1485 19.9355 10.2374 21.7361 9.59844L21.7676 9.58736L21.7994 9.57714C23.758 8.94525 25.795 8.65952 27.8508 8.66991L56.6191 8.8171L56.5704 1.4375H27.8391C24.3646 1.4375 20.882 1.85605 17.5651 2.91844C14.685 3.84109 11.9976 5.21311 9.64662 7.12489C7.49516 8.87442 5.76832 10.9642 4.52739 13.4459C3.26585 15.9693 2.70288 18.6682 2.70288 21.482C2.70288 24.3573 3.28144 27.1128 4.53899 29.7004C5.79031 32.2753 7.49793 34.4941 9.68298 36.3467C12.0258 38.3327 14.7296 39.7704 17.6221 40.7805C20.9081 41.9281 24.3665 42.4015 27.8391 42.4015H56.7938V18.5419H32.2977Z" fill="url(#paint0_linear_317_1460)"/>
<defs>
<linearGradient id="paint0_linear_317_1460" x1="60.9962" y1="1.4375" x2="61.2129" y2="60.9386" gradientUnits="userSpaceOnUse">
<stop stop-color="#038B86"/>
<stop offset="1" stop-color="#025956"/>
</linearGradient>
</defs>
</svg>
